<?xml version="1.0" encoding="UTF-8" standalone="no"?>
<!DOCTYPE svg PUBLIC "-//W3C//DTD SVG 1.1//EN" "http://www.w3.org/Graphics/SVG/1.1/DTD/svg11.dtd">
<svg xmlns="http://www.w3.org/2000/svg" version="1.1" viewBox="0.00 0.00 1024.00 1024.00">
<path fill="#000617" d="
  M 1024.00 0.00
  L 1024.00 1024.00
  L 0.00 1024.00
  L 0.00 0.00
  L 1024.00 0.00
  Z"
/>
<g stroke-width="2.00" fill="none" stroke-linecap="butt">
<path stroke="#001e42" d="
  M 605.98 566.77
  Q 599.75 562.87 595.14 557.11
  Q 592.30 553.56 591.38 547.35"
/>
<path stroke="#003d6e" d="
  M 591.38 547.35
  Q 594.84 546.30 597.01 544.05
  C 601.15 539.73 599.28 533.48 594.26 531.09
  A 3.83 3.79 -30.8 0 0 592.76 530.72
  L 584.81 530.42"
/>
<path stroke="#001129" d="
  M 584.81 530.42
  Q 584.70 529.11 586.60 529.22
  A 1.00 0.99 -65.5 0 0 587.37 528.93
  Q 589.41 526.92 588.40 524.50
  Q 579.41 503.07 570.04 478.48
  Q 567.84 472.73 566.43 467.40
  Q 563.96 458.14 563.40 456.10
  Q 558.65 438.96 556.79 421.66
  C 556.16 415.88 556.17 409.85 555.71 405.97
  C 554.76 398.07 555.77 390.34 556.43 381.86
  Q 556.97 375.03 559.98 367.86
  A 0.48 0.47 16.1 0 0 559.62 367.21
  Q 554.37 366.31 552.26 361.49
  A 1.40 1.39 43.5 0 1 552.23 360.46
  Q 553.32 357.51 554.26 355.19
  Q 554.60 354.36 555.48 354.28
  Q 555.91 354.24 556.15 354.81"
/>
<path stroke="#004c7c" d="
  M 556.15 354.81
  C 553.72 358.19 552.35 364.21 557.60 365.56
  Q 559.36 366.01 560.76 364.80
  Q 566.55 359.81 571.80 356.77
  Q 575.68 354.53 577.83 352.77
  Q 582.78 348.72 583.32 348.00
  Q 591.36 337.40 582.67 328.26
  C 581.39 326.91 578.23 325.39 576.62 325.31
  Q 572.16 325.08 555.71 325.35"
/>
<path stroke="#006a8c" d="
  M 555.71 325.35
  Q 503.10 325.62 450.50 325.53
  Q 443.23 325.52 439.44 331.18
  Q 434.54 338.52 439.51 346.74
  A 3.74 3.38 8.5 0 0 440.15 347.52
  Q 445.95 353.00 450.98 355.78
  Q 457.21 359.22 460.54 361.52"
/>
<path stroke="#000f26" d="
  M 460.54 361.52
  Q 452.84 358.93 444.06 352.43
  C 439.07 348.75 436.05 344.94 436.06 338.85
  C 436.08 327.94 444.45 324.04 454.03 324.10
  C 481.78 324.27 502.67 323.70 526.55 323.96
  C 538.66 324.09 549.58 323.61 561.26 323.86
  C 565.40 323.94 570.28 323.34 573.66 322.22
  Q 581.24 319.72 581.93 311.44
  Q 582.45 305.14 582.65 296.29
  Q 582.79 289.97 585.35 280.35
  C 587.60 271.90 592.98 262.47 596.56 253.87
  C 604.75 234.18 602.68 215.46 582.72 203.80
  Q 577.29 200.63 569.40 196.05
  Q 557.94 189.39 552.23 176.58
  Q 545.42 161.31 545.33 161.12
  C 539.43 149.40 532.18 140.86 522.35 130.89
  A 2.45 2.42 -13.4 0 0 521.36 130.29
  Q 513.40 127.86 506.25 127.49
  A 6.27 6.27 0.0 0 0 501.69 129.12
  C 492.06 137.92 482.80 147.76 476.32 158.47
  Q 469.86 169.15 466.40 174.59
  C 461.74 181.92 455.81 187.75 447.97 193.25
  Q 440.84 198.25 437.71 200.46
  Q 421.61 211.79 420.84 231.33
  C 420.26 246.05 425.85 259.96 430.53 274.22
  Q 435.99 290.87 433.46 307.60
  C 432.10 316.67 429.19 326.91 425.80 336.36
  C 421.05 349.62 414.38 358.11 400.81 361.36
  Q 395.43 362.65 384.62 364.98
  C 364.31 369.34 360.01 386.65 353.51 403.40
  C 349.93 412.65 344.73 421.41 340.82 429.93
  Q 338.17 435.68 337.30 439.88
  C 332.63 462.24 353.69 470.68 371.87 471.54
  Q 389.45 472.37 395.02 472.78
  C 413.54 474.15 431.90 483.43 427.35 505.23
  Q 426.30 510.24 424.31 514.86
  C 417.02 531.75 409.40 549.08 401.32 561.79
  Q 393.71 573.77 389.66 581.93
  C 381.25 598.89 381.66 615.40 387.46 633.44
  A 0.70 0.69 80.7 0 0 388.12 633.92
  Q 412.09 633.88 443.95 634.84
  C 451.50 635.07 459.72 634.07 467.21 635.51"
/>
<path stroke="#015b83" d="
  M 467.21 635.51
  Q 428.23 635.88 389.25 635.69
  C 382.04 635.65 382.74 643.76 383.23 649.68
  Q 383.29 650.44 383.74 650.62
  Q 384.23 650.83 384.95 650.73"
/>
<path stroke="#007990" d="
  M 657.05 808.51
  L 670.85 757.15
  A 0.79 0.79 0.0 0 0 670.09 756.16
  L 656.31 756.16
  A 0.63 0.62 -83.6 0 0 655.70 756.65
  L 642.09 812.46"
/>
<path stroke="#00608a" d="
  M 642.09 812.46
  L 640.77 820.11
  A 0.17 0.17 0.0 0 1 640.43 820.12
  L 634.54 794.56"
/>
<path stroke="#006f8f" d="
  M 634.54 794.56
  L 624.49 757.11
  A 1.35 1.34 82.4 0 0 623.19 756.11
  L 610.17 756.11
  A 0.68 0.67 -82.8 0 0 609.52 756.62
  L 595.28 810.73"
/>
<path stroke="#005c88" d="
  M 595.28 810.73
  L 593.72 818.62
  A 0.18 0.18 0.0 0 1 593.37 818.63
  L 592.94 817.00"
/>
<path stroke="#006d8e" d="
  M 592.94 817.00
  L 585.00 782.56"
/>
<path stroke="#006d8e" d="
  M 506.45 791.09
  Q 500.15 789.20 493.32 786.14
  C 488.70 784.07 485.03 780.77 486.50 775.49
  C 487.81 770.81 493.71 769.22 498.27 768.98
  C 505.56 768.60 512.12 770.48 518.92 773.07
  A 0.62 0.62 0.0 0 0 519.73 772.68
  L 523.46 761.09
  A 0.70 0.70 0.0 0 0 523.08 760.24
  Q 508.53 753.62 492.75 755.58
  C 481.83 756.93 471.54 764.08 470.91 775.90
  Q 470.64 780.98 471.66 784.56
  C 475.21 797.12 489.88 800.43 503.35 805.43
  Q 507.54 806.99 510.08 809.35
  C 516.13 814.95 511.98 823.34 504.67 824.73
  C 494.97 826.57 484.52 824.30 475.75 819.49
  A 0.60 0.59 29.7 0 0 474.96 819.70
  Q 474.48 820.49 474.38 821.48"
/>
<path stroke="#006a8c" d="
  M 315.83 832.04
  L 315.93 757.24
  A 1.09 1.09 0.0 0 0 314.84 756.15
  L 301.56 756.15
  A 0.66 0.66 0.0 0 0 300.90 756.81
  L 300.90 788.40
  A 0.66 0.65 -0.0 0 1 300.24 789.05
  L 266.48 789.05
  A 0.47 0.47 0.0 0 1 266.01 788.58
  L 266.06 762.77"
/>
<path stroke="#005c88" d="
  M 217.22 823.86
  C 208.47 825.03 199.82 824.48 192.85 818.48"
/>
<path stroke="#007390" d="
  M 192.85 818.48
  Q 187.05 812.94 185.44 805.56
  C 182.95 794.17 185.06 779.82 195.64 773.39
  C 204.51 768.00 217.77 769.20 227.14 773.77
  A 0.99 0.99 0.0 0 0 228.46 773.33
  L 233.73 762.81
  A 0.58 0.57 29.5 0 0 233.52 762.06
  Q 224.57 756.57 214.32 755.42
  Q 190.19 752.71 176.28 771.68"
/>
<path stroke="#003664" d="
  M 313.81 581.22
  Q 315.49 577.78 319.31 576.49"
/>
<path stroke="#004176" d="
  M 584.81 530.42
  L 570.74 530.33"
/>
<path stroke="#005d89" d="
  M 570.74 530.33
  L 567.55 530.32
  A 0.58 0.57 -1.6 0 1 566.98 529.79
  Q 566.75 526.68 566.76 524.25
  Q 566.85 499.44 566.75 485.71
  C 566.74 483.89 566.92 481.36 565.68 480.07
  Q 560.62 474.83 542.29 456.46
  Q 539.83 453.99 539.84 451.25
  Q 540.03 420.08 539.78 388.98"
/>
<path stroke="#006f94" d="
  M 539.78 388.98
  L 539.67 374.47
  A 1.42 1.41 66.8 0 1 540.07 373.46
  C 541.21 372.31 542.74 371.52 543.61 370.14
  Q 548.49 362.36 541.52 355.38"
/>
<path stroke="#001834" d="
  M 541.52 355.38
  L 542.52 354.67"
/>
<path stroke="#01508c" d="
  M 544.94 623.31
  Q 546.61 623.34 547.29 622.87
  A 0.41 0.41 0.0 0 0 547.28 622.19
  Q 546.19 621.49 546.15 621.41
  Q 546.11 621.32 546.12 621.45
  Q 546.14 621.66 546.02 621.71
  A 0.24 0.23 -22.3 0 1 545.73 621.59
  Q 544.76 619.49 544.98 617.11
  A 0.04 0.04 0.0 0 1 545.05 617.10
  Q 545.12 617.27 545.15 617.33
  A 0.04 0.04 0.0 0 0 545.22 617.34
  L 547.78 613.85"
/>
<path stroke="#005695" d="
  M 539.01 600.54
  Q 541.80 596.64 547.64 597.27"
/>
<path stroke="#00bdf5" d="
  M 592.94 817.00
  L 589.93 812.49
  A 3.26 3.25 71.1 0 0 587.00 811.05
  Q 582.95 811.33 580.60 811.30
  Q 580.20 811.30 580.13 811.21
  Q 579.78 810.78 579.58 810.94
  A 0.48 0.47 64.4 0 0 579.41 811.44
  C 580.91 817.34 583.43 823.96 583.00 830.27"
/>
<path stroke="#00b8f0" d="
  M 516.30 835.24
  Q 514.12 835.62 512.14 835.87
  C 519.83 832.05 525.25 828.21 526.25 819.45
  A 0.41 0.41 0.0 0 0 525.83 818.99
  C 521.08 819.11 517.74 820.18 513.85 822.18
  Q 509.63 824.36 507.66 825.05
  Q 496.76 828.89 485.72 825.18
  Q 479.36 823.05 473.74 823.58"
/>
<path stroke="#005084" d="
  M 556.15 354.81
  Q 558.39 352.19 559.90 351.14
  Q 566.90 346.27 573.73 341.02
  A 0.53 0.53 0.0 0 0 573.56 340.09
  Q 573.09 339.94 572.20 340.02"
/>
<path stroke="#00c3f6" d="
  M 192.85 818.48
  C 186.62 815.29 181.78 816.46 175.28 816.46
  A 0.43 0.43 0.0 0 0 174.91 817.12
  L 182.57 829.39"
/>
<path stroke="#00aae7" d="
  M 555.71 325.35
  Q 552.76 326.61 550.51 326.68
  Q 540.87 327.02 530.39 326.85
  A 0.65 0.65 0.0 0 0 529.73 327.51
  L 529.89 338.30
  A 0.78 0.78 0.0 0 0 530.66 339.07
  Q 538.15 339.18 565.93 339.15
  Q 568.03 339.14 572.20 340.02"
/>
<path stroke="#006f94" d="
  M 572.20 340.02
  L 545.31 340.18"
/>
<path stroke="#007aa2" d="
  M 545.31 340.18
  L 473.48 340.14"
/>
<path stroke="#0094c7" d="
  M 473.48 340.14
  L 449.80 340.12
  A 0.37 0.36 61.7 0 0 449.60 340.79
  L 466.64 352.05"
/>
<path stroke="#007aa2" d="
  M 466.64 352.05
  Q 478.54 361.26 480.30 376.81
  Q 481.18 384.50 481.11 393.26
  Q 480.88 422.83 476.27 453.75
  Q 473.01 475.66 466.24 496.74
  Q 460.54 514.50 449.97 530.06
  A 0.41 0.41 0.0 0 0 450.31 530.70
  L 515.95 530.42"
/>
<path stroke="#007197" d="
  M 515.95 530.42
  Q 516.36 524.71 516.15 518.94
  C 516.09 517.06 515.61 515.95 514.32 514.72
  Q 506.75 507.51 500.63 501.60
  A 2.19 2.19 0.0 0 1 500.18 500.98
  Q 499.43 499.43 499.42 497.00
  Q 499.38 441.19 499.44 407.35
  A 0.89 0.87 -79.2 0 0 498.89 406.53
  Q 493.28 404.22 492.15 398.74
  C 490.49 390.76 495.12 384.27 503.25 383.97
  C 508.82 383.76 514.35 387.98 515.02 393.88
  Q 515.93 401.91 509.05 405.85
  A 2.52 2.51 -14.8 0 0 507.79 408.01
  Q 507.64 443.66 507.69 492.84
  C 507.69 495.01 508.10 496.56 509.48 498.02
  Q 512.39 501.07 522.39 510.46
  C 523.88 511.86 524.23 512.96 524.22 515.00
  Q 524.17 538.18 524.23 571.49
  Q 524.23 573.99 525.37 575.13
  Q 533.51 583.27 541.79 591.53"
/>
<path stroke="#00a2df" d="
  M 541.79 591.53
  C 538.01 590.10 534.11 590.59 533.78 595.33"
/>
<path stroke="#00779f" d="
  M 533.78 595.33
  L 516.59 578.63
  A 1.69 1.66 -68.2 0 1 516.09 577.43
  L 516.09 544.28
  A 0.67 0.67 0.0 0 0 515.42 543.61
  Q 481.40 543.77 446.26 544.08
  Q 444.20 544.10 444.41 545.51"
/>
<path stroke="#0085b0" d="
  M 444.41 545.51
  C 442.69 556.27 440.47 564.72 431.47 571.72
  Q 422.59 578.62 413.51 585.25
  Q 408.43 588.96 403.86 594.07
  Q 396.11 602.72 402.24 611.91"
/>
<path stroke="#00779f" d="
  M 402.24 611.91
  Q 403.86 613.35 405.37 613.34
  Q 446.58 613.03 487.66 613.15"
/>
<path stroke="#00a7e4" d="
  M 487.66 613.15
  Q 495.06 612.32 496.57 614.91"
/>
<path stroke="#019cd6" d="
  M 496.57 614.91
  Q 487.00 615.13 477.96 615.29
  Q 471.61 615.41 468.17 616.47
  Q 463.10 618.04 459.49 621.14
  Q 458.19 622.25 459.49 624.17"
/>
<path stroke="#00d7fb" d="
  M 397.12 450.96
  Q 393.85 446.94 395.12 441.71"
/>
<path stroke="#00d7fb" d="
  M 446.00 396.94
  Q 445.72 395.55 442.90 395.61
  C 432.94 395.79 421.77 395.09 409.44 394.68
  A 0.06 0.06 0.0 0 1 409.44 394.56
  Q 414.29 393.77 419.92 393.60
  C 423.72 393.48 427.21 389.98 430.83 389.62
  Q 438.24 388.90 435.90 387.75"
/>
<path stroke="#00cdf8" d="
  M 656.69 809.75
  C 655.91 804.95 658.74 796.67 659.60 793.84
  A 0.87 0.85 32.9 0 0 659.41 793.00
  Q 655.71 788.91 649.93 788.12
  A 0.53 0.53 0.0 0 0 649.35 788.51
  Q 647.09 797.05 644.55 807.77
  Q 644.09 809.74 642.09 812.46"
/>
<path stroke="#00c3f7" d="
  M 634.54 794.56
  C 631.76 791.49 624.51 786.08 622.44 793.50
  Q 621.83 795.70 621.78 798.08"
/>
<path stroke="#00bff5" d="
  M 605.04 822.76
  Q 605.00 819.32 605.37 817.83
  Q 607.66 808.55 608.88 802.98
  A 0.85 0.84 -84.3 0 0 608.04 801.95
  L 600.36 802.06
  A 1.27 1.26 4.8 0 0 599.14 803.09
  Q 598.38 807.12 595.28 810.73"
/>
<path stroke="#004f8f" d="
  M 591.38 547.35
  Q 587.47 552.50 582.87 556.02"
/>
<path stroke="#016fa6" d="
  M 492.51 635.81
  Q 490.76 644.96 481.82 647.31
  A 0.21 0.20 82.8 0 0 481.67 647.51
  L 481.66 648.39
  A 0.22 0.22 0.0 0 0 481.94 648.60
  L 484.97 647.77
  A 0.22 0.21 -13.7 0 1 485.23 647.92
  L 485.30 648.18
  A 0.09 0.09 0.0 0 0 485.46 648.21
  Q 485.56 648.09 485.59 647.99
  A 0.07 0.07 0.0 0 1 485.72 648.01
  Q 485.65 649.62 485.40 649.98"
/>
<path stroke="#015e88" d="
  M 485.40 649.98
  L 439.21 650.68"
/>
<path stroke="#006d91" d="
  M 460.54 361.52
  C 469.79 367.97 469.68 377.31 470.79 387.21
  A 0.42 0.41 86.9 0 1 470.38 387.67
  L 435.90 387.75"
/>
<path stroke="#007c94" d="
  M 435.90 387.75
  L 404.53 387.33
  A 0.64 0.64 0.0 0 1 403.91 386.86
  Q 400.45 374.79 389.77 373.21
  C 379.12 371.63 370.13 378.37 369.10 389.17
  C 368.16 399.07 375.45 407.29 385.28 407.93
  C 393.01 408.44 398.93 404.47 402.43 397.83
  A 1.71 1.71 0.0 0 1 403.94 396.92
  L 446.00 396.94"
/>
<path stroke="#006d91" d="
  M 446.00 396.94
  L 470.16 396.91
  A 0.41 0.41 0.0 0 1 470.57 397.33
  Q 469.56 425.16 465.17 454.68
  Q 464.71 457.78 463.94 460.35
  A 0.75 0.75 0.0 0 1 463.25 460.89
  C 456.96 461.17 445.58 462.10 443.09 459.66
  Q 441.19 457.80 431.01 446.24
  C 428.10 442.93 426.35 441.64 421.51 441.63
  Q 408.22 441.62 395.12 441.71"
/>
<path stroke="#007c94" d="
  M 395.12 441.71
  L 376.93 441.35
  A 1.21 1.20 -8.7 0 1 375.82 440.54
  C 370.59 425.36 349.87 424.10 343.48 438.82
  C 337.24 453.20 350.28 467.47 365.08 462.36
  Q 371.91 460.01 375.33 452.02
  A 1.93 1.92 11.6 0 1 377.12 450.85
  L 397.12 450.96"
/>
<path stroke="#006d91" d="
  M 397.12 450.96
  Q 409.12 451.00 421.31 451.04
  Q 423.53 451.05 424.60 452.27
  Q 435.69 465.04 438.59 468.03
  Q 440.53 470.04 443.10 470.16
  Q 450.75 470.50 461.60 470.18
  A 0.59 0.58 -85.3 0 1 462.19 470.89
  Q 458.11 490.28 450.26 507.52
  Q 446.83 515.06 443.25 520.49
  C 440.61 524.49 437.22 526.46 432.73 528.41
  Q 429.61 529.76 428.20 531.16
  C 421.91 537.39 424.87 546.28 433.20 548.37
  A 0.53 0.53 0.0 0 1 433.58 549.02
  Q 431.75 555.95 430.65 557.38
  Q 428.32 560.42 419.45 566.93
  Q 406.99 576.07 405.80 577.05
  C 399.52 582.19 393.84 587.22 390.77 594.26
  C 387.06 602.81 389.06 613.17 394.85 620.38
  C 397.02 623.09 399.36 624.45 402.75 624.44
  Q 431.09 624.30 459.49 624.17"
/>
<path stroke="#01416f" d="
  M 459.49 624.17
  L 511.46 623.53"
/>
<path stroke="#002348" d="
  M 503.48 635.61
  L 492.51 635.81"
/>
<path stroke="#015e88" d="
  M 492.51 635.81
  L 467.21 635.51"
/>
<path stroke="#007197" d="
  M 541.52 355.38
  Q 537.19 352.31 532.52 353.80
  Q 524.05 356.50 524.49 365.64
  C 524.68 369.76 526.67 372.26 529.89 373.94
  A 1.69 1.68 13.6 0 1 530.81 375.44
  L 530.80 407.29"
/>
<path stroke="#00608c" d="
  M 530.80 407.29
  Q 530.87 430.58 530.92 453.86
  Q 530.93 456.91 532.03 458.00
  Q 556.26 481.97 558.04 483.75
  Q 558.92 484.63 558.94 486.77
  Q 559.22 512.05 558.72 533.31
  C 558.67 535.74 558.90 539.77 558.90 543.06
  A 0.91 0.90 0.3 0 0 559.81 543.97
  L 573.28 543.94"
/>
<path stroke="#004479" d="
  M 573.28 543.94
  L 579.70 544.06
  A 1.13 1.12 85.0 0 1 580.79 544.98
  L 582.87 556.02"
/>
<path stroke="#00254d" d="
  M 582.87 556.02
  Q 586.45 565.84 594.76 572.01
  Q 609.42 582.89 612.59 585.43
  Q 616.96 588.93 620.65 593.11
  Q 627.73 601.11 623.07 610.37
  C 622.16 612.19 621.21 613.00 619.18 613.03
  Q 610.90 613.20 606.03 613.26
  Q 603.42 613.30 602.36 612.14
  Q 589.75 598.28 576.08 585.67"
/>
<path stroke="#005e8e" d="
  M 576.08 585.67
  Q 562.59 572.56 549.09 559.65
  Q 547.54 558.16 547.53 555.51
  Q 547.44 517.85 547.70 496.66
  Q 547.72 494.92 547.25 493.70
  A 2.10 2.06 11.4 0 0 546.74 492.95
  Q 543.84 490.24 541.34 488.12
  Q 539.08 486.19 539.17 484.60
  Q 539.52 478.41 535.32 475.16
  C 528.36 469.75 519.37 475.80 522.27 484.27
  C 523.80 488.71 527.80 490.14 532.31 490.93
  A 2.61 2.52 -16.8 0 1 533.69 491.64
  L 538.96 496.91
  A 2.22 2.19 22.8 0 1 539.61 498.47
  L 539.61 560.58
  A 2.83 2.81 -68.3 0 0 540.48 562.62
  L 570.30 591.35"
/>
<path stroke="#00254d" d="
  M 570.30 591.35
  L 592.30 612.87
  A 0.36 0.35 -21.5 0 1 592.03 613.48
  Q 583.50 613.14 566.28 613.37
  Q 563.35 613.41 561.80 611.70
  Q 554.87 604.07 547.64 597.27"
/>
<path stroke="#004b7f" d="
  M 547.64 597.27
  L 541.79 591.53"
/>
<path stroke="#00b7ec" d="
  M 539.78 388.98
  Q 538.40 388.99 537.89 387.35
  A 0.71 0.71 0.0 0 0 536.56 387.28
  Q 535.16 390.59 532.53 392.62
  A 0.70 0.69 72.2 0 0 532.26 393.15
  L 531.80 409.25
  A 0.08 0.06 -14.2 0 1 531.75 409.31
  L 531.15 409.48
  A 0.16 0.15 80.3 0 1 530.96 409.34
  L 530.80 407.29"
/>
<path stroke="#00213f" d="
  M 545.31 340.18
  Q 556.53 342.73 568.53 341.82
  A 0.50 0.50 0.0 0 1 568.86 342.72
  Q 565.42 345.19 558.25 350.64
  C 554.22 353.71 551.32 357.98 547.46 362.50
  A 0.25 0.25 0.0 0 1 547.03 362.39
  Q 546.12 357.80 542.52 354.67"
/>
<path stroke="#002342" d="
  M 542.52 354.67
  C 538.59 351.70 533.42 351.22 529.18 353.80
  C 522.49 357.87 521.40 365.50 525.33 372.13
  A 0.92 0.90 43.4 0 1 525.36 372.98
  Q 521.05 381.63 514.55 387.49
  A 0.56 0.56 0.0 0 1 513.78 387.46
  Q 507.85 381.19 498.89 383.76
  Q 494.63 384.99 492.24 389.09
  Q 488.19 396.05 492.79 402.99
  Q 493.70 404.36 497.38 407.40
  A 1.14 1.12 -71.7 0 1 497.79 408.23
  Q 498.35 422.28 497.98 433.14
  C 497.88 435.81 498.25 438.63 498.10 441.42
  Q 497.89 445.35 497.90 447.65
  Q 497.98 464.12 497.86 493.25
  C 497.83 499.35 499.13 502.40 503.63 506.44
  C 508.53 510.86 513.63 515.09 514.48 521.08
  Q 515.50 528.33 515.95 530.42"
/>
<path stroke="#0089ce" d="
  M 570.74 530.33
  C 569.59 535.23 569.22 540.26 573.28 543.94"
/>
<path stroke="#008ccb" d="
  M 298.84 543.91
  Q 294.97 540.31 292.92 535.53
  A 0.44 0.43 -44.7 0 0 292.12 535.53
  Q 291.52 536.85 290.30 536.81
  A 0.64 0.64 0.0 0 0 289.65 537.58
  L 291.44 545.91"
/>
<path stroke="#014576" d="
  M 505.89 615.41
  L 514.36 616.02
  A 2.31 2.25 -49.9 0 0 515.15 615.94
  Q 518.81 614.89 521.94 616.31
  A 0.36 0.35 -69.3 0 0 522.42 616.09
  L 522.53 615.76
  A 0.27 0.26 -68.3 0 0 522.40 615.45
  L 520.84 614.66"
/>
<path stroke="#005186" d="
  M 533.78 595.33
  L 539.01 600.54"
/>
<path stroke="#002b55" d="
  M 539.01 600.54
  L 551.64 613.15
  A 0.69 0.68 -7.0 0 1 550.80 614.22
  Q 549.24 613.28 547.78 613.85"
/>
<path stroke="#014b7d" d="
  M 547.78 613.85
  L 521.99 613.60"
/>
<path stroke="#00568c" d="
  M 521.99 613.60
  L 487.66 613.15"
/>
<path stroke="#003457" d="
  M 402.24 611.91
  L 405.33 612.56
  A 1.77 1.64 47.2 0 0 405.59 612.58
  L 451.72 611.90
  A 1.56 1.53 19.9 0 0 452.86 611.38
  C 457.51 606.09 458.74 597.33 459.61 590.59
  Q 463.87 557.69 463.99 556.77
  Q 464.62 552.04 463.93 550.22
  Q 462.26 545.83 457.18 545.39
  Q 450.80 544.84 444.41 545.51"
/>
<path stroke="#0069a4" d="
  M 576.08 585.67
  C 572.04 585.46 568.41 586.19 570.30 591.35"
/>
<path stroke="#017bc3" d="
  M 521.99 613.60
  L 522.16 613.93
  A 0.31 0.31 0.0 0 1 521.96 614.38
  L 520.84 614.66"
/>
<path stroke="#005084" d="
  M 520.84 614.66
  L 505.89 615.41"
/>
<path stroke="#017bc3" d="
  M 505.89 615.41
  L 496.57 614.91"
/>
<path stroke="#004672" d="
  M 473.48 340.14
  Q 473.62 348.71 466.64 352.05"
/>
<path stroke="#00264f" d="
  M 547.70 635.65
  L 555.76 635.99
  A 0.27 0.27 0.0 0 1 555.96 636.42
  L 544.98 650.77"
/>
<path stroke="#002348" d="
  M 493.04 650.63
  L 485.40 649.98"
/>
<path stroke="#006289" d="
  M 287.23 335.71
  Q 265.06 385.59 265.87 440.20"
/>
<path stroke="#006289" d="
  M 278.42 486.46
  Q 274.82 470.45 273.79 454.00
  Q 270.24 397.33 291.64 344.98"
/>
<path stroke="#009adb" d="
  M 309.45 309.83
  Q 301.73 319.05 296.30 330.58
  A 0.38 0.38 0.0 0 1 295.67 330.67
  L 295.23 330.16
  A 0.45 0.44 -41.8 0 1 295.27 329.53
  L 295.91 328.97
  A 0.30 0.29 -49.1 0 0 295.88 328.50
  C 293.33 326.85 294.99 322.81 295.93 321.40
  Q 299.55 315.97 300.82 309.74"
/>
<path stroke="#005896" d="
  M 340.69 269.80
  L 333.44 266.42"
/>
<path stroke="#0070ae" d="
  M 693.50 268.62
  Q 694.80 271.65 696.52 274.45
  C 698.05 276.92 699.04 279.13 696.06 280.65
  A 0.60 0.59 58.2 0 1 695.32 280.47
  Q 689.90 273.19 682.60 268.48"
/>
<path stroke="#0073bc" d="
  M 757.62 405.93
  Q 753.18 407.66 750.97 412.79"
/>
<path stroke="#00447e" d="
  M 759.29 452.02
  Q 754.73 453.52 751.57 457.34"
/>
<path stroke="#00bff5" d="
  M 816.31 808.52
  L 816.21 813.82
  A 0.13 0.12 -87.4 0 1 816.09 813.94
  L 815.82 813.94
  A 0.04 0.03 -0.0 0 1 815.78 813.91
  L 815.29 803.70
  A 1.33 1.33 0.0 0 1 816.60 802.31
  L 845.59 801.88
  A 0.96 0.96 0.0 0 0 846.54 800.91
  L 846.41 792.51
  A 1.05 1.04 -0.5 0 0 845.35 791.48
  L 817.94 791.89
  A 3.45 3.42 56.9 0 1 816.45 791.57
  C 810.60 788.88 805.46 790.90 803.15 796.78
  Q 802.52 798.39 801.94 800.06"
/>
<path stroke="#009ce3" d="
  M 816.33 823.07
  C 815.79 821.20 814.63 816.91 812.39 816.98
  Q 803.39 817.27 801.96 826.31"
/>
<path stroke="#00bff5" d="
  M 775.74 802.85
  Q 775.85 800.43 777.02 798.43
  A 0.35 0.34 -74.5 0 0 776.73 797.91
  L 763.11 797.45
  A 1.26 1.22 -55.8 0 0 762.48 797.58
  Q 757.38 799.98 752.56 800.09
  C 741.43 800.36 731.74 800.11 721.02 802.71"
/>
</g>
<g fill="#00c8f7">
<path d="
  M 555.71 325.35
  Q 552.76 326.61 550.51 326.68
  Q 540.87 327.02 530.39 326.85
  A 0.65 0.65 0.0 0 0 529.73 327.51
  L 529.89 338.30
  A 0.78 0.78 0.0 0 0 530.66 339.07
  Q 538.15 339.18 565.93 339.15
  Q 568.03 339.14 572.20 340.02
  L 545.31 340.18
  L 473.48 340.14
  L 449.80 340.12
  A 0.37 0.36 61.7 0 0 449.60 340.79
  L 466.64 352.05
  Q 478.54 361.26 480.30 376.81
  Q 481.18 384.50 481.11 393.26
  Q 480.88 422.83 476.27 453.75
  Q 473.01 475.66 466.24 496.74
  Q 460.54 514.50 449.97 530.06
  A 0.41 0.41 0.0 0 0 450.31 530.70
  L 515.95 530.42
  Q 516.36 524.71 516.15 518.94
  C 516.09 517.06 515.61 515.95 514.32 514.72
  Q 506.75 507.51 500.63 501.60
  A 2.19 2.19 0.0 0 1 500.18 500.98
  Q 499.43 499.43 499.42 497.00
  Q 499.38 441.19 499.44 407.35
  A 0.89 0.87 -79.2 0 0 498.89 406.53
  Q 493.28 404.22 492.15 398.74
  C 490.49 390.76 495.12 384.27 503.25 383.97
  C 508.82 383.76 514.35 387.98 515.02 393.88
  Q 515.93 401.91 509.05 405.85
  A 2.52 2.51 -14.8 0 0 507.79 408.01
  Q 507.64 443.66 507.69 492.84
  C 507.69 495.01 508.10 496.56 509.48 498.02
  Q 512.39 501.07 522.39 510.46
  C 523.88 511.86 524.23 512.96 524.22 515.00
  Q 524.17 538.18 524.23 571.49
  Q 524.23 573.99 525.37 575.13
  Q 533.51 583.27 541.79 591.53
  C 538.01 590.10 534.11 590.59 533.78 595.33
  L 516.59 578.63
  A 1.69 1.66 -68.2 0 1 516.09 577.43
  L 516.09 544.28
  A 0.67 0.67 0.0 0 0 515.42 543.61
  Q 481.40 543.77 446.26 544.08
  Q 444.20 544.10 444.41 545.51
  C 442.69 556.27 440.47 564.72 431.47 571.72
  Q 422.59 578.62 413.51 585.25
  Q 408.43 588.96 403.86 594.07
  Q 396.11 602.72 402.24 611.91
  Q 403.86 613.35 405.37 613.34
  Q 446.58 613.03 487.66 613.15
  Q 495.06 612.32 496.57 614.91
  Q 487.00 615.13 477.96 615.29
  Q 471.61 615.41 468.17 616.47
  Q 463.10 618.04 459.49 621.14
  Q 458.19 622.25 459.49 624.17
  Q 431.09 624.30 402.75 624.44
  C 399.36 624.45 397.02 623.09 394.85 620.38
  C 389.06 613.17 387.06 602.81 390.77 594.26
  C 393.84 587.22 399.52 582.19 405.80 577.05
  Q 406.99 576.07 419.45 566.93
  Q 428.32 560.42 430.65 557.38
  Q 431.75 555.95 433.58 549.02
  A 0.53 0.53 0.0 0 0 433.20 548.37
  C 424.87 546.28 421.91 537.39 428.20 531.16
  Q 429.61 529.76 432.73 528.41
  C 437.22 526.46 440.61 524.49 443.25 520.49
  Q 446.83 515.06 450.26 507.52
  Q 458.11 490.28 462.19 470.89
  A 0.59 0.58 -85.3 0 0 461.60 470.18
  Q 450.75 470.50 443.10 470.16
  Q 440.53 470.04 438.59 468.03
  Q 435.69 465.04 424.60 452.27
  Q 423.53 451.05 421.31 451.04
  Q 409.12 451.00 397.12 450.96
  Q 393.85 446.94 395.12 441.71
  Q 408.22 441.62 421.51 441.63
  C 426.35 441.64 428.10 442.93 431.01 446.24
  Q 441.19 457.80 443.09 459.66
  C 445.58 462.10 456.96 461.17 463.25 460.89
  A 0.75 0.75 0.0 0 0 463.94 460.35
  Q 464.71 457.78 465.17 454.68
  Q 469.56 425.16 470.57 397.33
  A 0.41 0.41 0.0 0 0 470.16 396.91
  L 446.00 396.94
  Q 445.72 395.55 442.90 395.61
  C 432.94 395.79 421.77 395.09 409.44 394.68
  A 0.06 0.06 0.0 0 1 409.44 394.56
  Q 414.29 393.77 419.92 393.60
  C 423.72 393.48 427.21 389.98 430.83 389.62
  Q 438.24 388.90 435.90 387.75
  L 470.38 387.67
  A 0.42 0.41 86.9 0 0 470.79 387.21
  C 469.68 377.31 469.79 367.97 460.54 361.52
  Q 457.21 359.22 450.98 355.78
  Q 445.95 353.00 440.15 347.52
  A 3.74 3.38 8.5 0 1 439.51 346.74
  Q 434.54 338.52 439.44 331.18
  Q 443.23 325.52 450.50 325.53
  Q 503.10 325.62 555.71 325.35
  Z"
/>
<path d="
  M 541.52 355.38
  Q 548.49 362.36 543.61 370.14
  C 542.74 371.52 541.21 372.31 540.07 373.46
  A 1.42 1.41 66.8 0 0 539.67 374.47
  L 539.78 388.98
  Q 538.40 388.99 537.89 387.35
  A 0.71 0.71 0.0 0 0 536.56 387.28
  Q 535.16 390.59 532.53 392.62
  A 0.70 0.69 72.2 0 0 532.26 393.15
  L 531.80 409.25
  A 0.08 0.06 -14.2 0 1 531.75 409.31
  L 531.15 409.48
  A 0.16 0.15 80.3 0 1 530.96 409.34
  L 530.80 407.29
  L 530.81 375.44
  A 1.69 1.68 13.6 0 0 529.89 373.94
  C 526.67 372.26 524.68 369.76 524.49 365.64
  Q 524.05 356.50 532.52 353.80
  Q 537.19 352.31 541.52 355.38
  Z"
/>
<path d="
  M 266.06 762.77
  L 266.01 788.58
  A 0.47 0.47 0.0 0 0 266.48 789.05
  L 300.24 789.05
  A 0.66 0.65 0.0 0 0 300.90 788.40
  L 300.90 756.81
  A 0.66 0.66 0.0 0 1 301.56 756.15
  L 314.84 756.15
  A 1.09 1.09 0.0 0 1 315.93 757.24
  L 315.83 832.04
  L 315.63 837.33
  A 0.54 0.53 -88.9 0 1 315.10 837.85
  L 301.81 837.85
  A 0.93 0.93 0.0 0 1 300.88 836.92
  L 300.88 804.91
  A 0.88 0.88 0.0 0 0 300.00 804.03
  L 266.56 804.03
  A 0.63 0.63 0.0 0 0 265.93 804.66
  L 265.93 836.94
  A 0.87 0.87 0.0 0 1 265.06 837.81
  L 251.67 837.81
  A 0.65 0.65 0.0 0 1 251.02 837.16
  L 251.02 756.84
  A 0.72 0.72 0.0 0 1 251.74 756.12
  L 265.16 756.12
  A 0.62 0.62 0.0 0 1 265.78 756.71
  L 266.06 762.77
  Z"
/>
</g>
<path fill="#00598b" d="
  M 693.50 268.62
  Q 694.80 271.65 696.52 274.45
  C 698.05 276.92 699.04 279.13 696.06 280.65
  A 0.60 0.59 58.2 0 1 695.32 280.47
  Q 689.90 273.19 682.60 268.48
  Q 665.76 251.52 646.01 238.29
  A 0.38 0.38 0.0 0 1 645.87 237.84
  L 648.47 231.49
  A 0.14 0.14 0.0 0 1 648.67 231.42
  Q 673.81 246.80 693.50 268.62
  Z"
/>
<g fill="#002646">
<path d="
  M 533.78 595.33
  L 539.01 600.54
  L 551.64 613.15
  A 0.69 0.68 -7.0 0 1 550.80 614.22
  Q 549.24 613.28 547.78 613.85
  L 521.99 613.60
  L 487.66 613.15
  Q 446.58 613.03 405.37 613.34
  Q 403.86 613.35 402.24 611.91
  L 405.33 612.56
  A 1.77 1.64 47.2 0 0 405.59 612.58
  L 451.72 611.90
  A 1.56 1.53 19.9 0 0 452.86 611.38
  C 457.51 606.09 458.74 597.33 459.61 590.59
  Q 463.87 557.69 463.99 556.77
  Q 464.62 552.04 463.93 550.22
  Q 462.26 545.83 457.18 545.39
  Q 450.80 544.84 444.41 545.51
  Q 444.20 544.10 446.26 544.08
  Q 481.40 543.77 515.42 543.61
  A 0.67 0.67 0.0 0 1 516.09 544.28
  L 516.09 577.43
  A 1.69 1.66 -68.2 0 0 516.59 578.63
  L 533.78 595.33
  Z"
/>
<circle cx="534.10" cy="626.77" r="0.10"/>
<path d="
  M 520.35 628.42
  L 520.05 628.42
  A 0.09 0.09 0.0 0 0 520.01 628.59
  Q 520.48 628.79 520.17 629.07
  A 0.14 0.12 -64.0 0 1 520.08 629.11
  L 518.33 629.36
  A 0.18 0.17 -82.8 0 1 518.15 629.12
  L 519.03 626.96
  A 0.07 0.07 0.0 0 1 519.14 626.94
  L 520.38 628.36
  A 0.04 0.04 0.0 0 1 520.35 628.42
  Z"
/>
<ellipse cx="0.00" cy="0.00" transform="translate(521.88,627.12) rotate(-90.0)" rx="0.04" ry="0.01"/>
<rect x="-3.19" y="-1.06" transform="translate(525.08,630.83) rotate(-0.5)" width="6.38" height="2.12" rx="1.02"/>
<ellipse cx="0.00" cy="0.00" transform="translate(519.44,630.75) rotate(-164.0)" rx="0.45" ry="0.14"/>
</g>
<g fill="#00acee">
<path d="
  M 816.31 808.52
  L 816.33 823.07
  C 815.79 821.20 814.63 816.91 812.39 816.98
  Q 803.39 817.27 801.96 826.31
  L 801.94 800.06
  Q 802.52 798.39 803.15 796.78
  C 805.46 790.90 810.60 788.88 816.45 791.57
  A 3.45 3.42 56.9 0 0 817.94 791.89
  L 845.35 791.48
  A 1.05 1.04 -0.5 0 1 846.41 792.51
  L 846.54 800.91
  A 0.96 0.96 0.0 0 1 845.59 801.88
  L 816.60 802.31
  A 1.33 1.33 0.0 0 0 815.29 803.70
  L 815.78 813.91
  A 0.04 0.03 0.0 0 0 815.82 813.94
  L 816.09 813.94
  A 0.13 0.12 -87.4 0 0 816.21 813.82
  L 816.31 808.52
  Z"
/>
<path d="
  M 775.74 802.85
  Q 772.54 806.35 768.43 808.71
  A 0.83 0.83 0.0 0 0 768.14 809.87
  L 785.56 837.26
  A 0.45 0.45 0.0 0 1 785.17 837.95
  L 770.17 837.81
  A 2.33 2.31 73.9 0 1 768.23 836.73
  L 753.36 813.35
  A 2.00 1.99 -15.8 0 0 751.69 812.42
  L 736.67 812.28
  A 0.63 0.62 -89.1 0 0 736.04 812.90
  L 735.81 837.14
  A 0.79 0.78 0.4 0 1 735.01 837.92
  L 722.08 837.80
  A 1.09 1.09 0.0 0 1 721.00 836.71
  L 721.02 802.71
  C 731.74 800.11 741.43 800.36 752.56 800.09
  Q 757.38 799.98 762.48 797.58
  A 1.26 1.22 -55.8 0 1 763.11 797.45
  L 776.73 797.91
  A 0.35 0.34 -74.5 0 1 777.02 798.43
  Q 775.85 800.43 775.74 802.85
  Z"
/>
<path d="
  M 605.04 822.76
  L 600.85 837.29
  A 0.95 0.94 7.7 0 1 599.94 837.98
  L 585.79 837.98
  A 0.90 0.90 0.0 0 1 584.92 837.31
  L 583.00 830.27
  C 583.43 823.96 580.91 817.34 579.41 811.44
  A 0.48 0.47 64.4 0 1 579.58 810.94
  Q 579.78 810.78 580.13 811.21
  Q 580.20 811.30 580.60 811.30
  Q 582.95 811.33 587.00 811.05
  A 3.26 3.25 71.1 0 1 589.93 812.49
  L 592.94 817.00
  L 593.37 818.63
  A 0.18 0.18 0.0 0 0 593.72 818.62
  L 595.28 810.73
  Q 598.38 807.12 599.14 803.09
  A 1.27 1.26 4.8 0 1 600.36 802.06
  L 608.04 801.95
  A 0.85 0.84 -84.3 0 1 608.88 802.98
  Q 607.66 808.55 605.37 817.83
  Q 605.00 819.32 605.04 822.76
  Z"
/>
<path d="
  M 192.85 818.48
  C 199.82 824.48 208.47 825.03 217.22 823.86
  Q 223.56 822.77 229.10 819.74
  A 0.45 0.44 64.5 0 1 229.72 819.96
  L 234.53 830.81
  A 0.80 0.79 -27.1 0 1 234.20 831.82
  C 218.71 840.63 196.70 841.97 182.57 829.39
  L 174.91 817.12
  A 0.43 0.43 0.0 0 1 175.28 816.46
  C 181.78 816.46 186.62 815.29 192.85 818.48
  Z"
/>
</g>
<g fill="#000c21">
<path d="
  M 605.98 566.77
  Q 599.75 562.87 595.14 557.11
  Q 592.30 553.56 591.38 547.35
  Q 594.84 546.30 597.01 544.05
  C 601.15 539.73 599.28 533.48 594.26 531.09
  A 3.83 3.79 -30.8 0 0 592.76 530.72
  L 584.81 530.42
  Q 584.70 529.11 586.60 529.22
  A 1.00 0.99 -65.5 0 0 587.37 528.93
  Q 589.41 526.92 588.40 524.50
  Q 579.41 503.07 570.04 478.48
  Q 567.84 472.73 566.43 467.40
  Q 563.96 458.14 563.40 456.10
  Q 558.65 438.96 556.79 421.66
  C 556.16 415.88 556.17 409.85 555.71 405.97
  C 554.76 398.07 555.77 390.34 556.43 381.86
  Q 556.97 375.03 559.98 367.86
  A 0.48 0.47 16.1 0 0 559.62 367.21
  Q 554.37 366.31 552.26 361.49
  A 1.40 1.39 43.5 0 1 552.23 360.46
  Q 553.32 357.51 554.26 355.19
  Q 554.60 354.36 555.48 354.28
  Q 555.91 354.24 556.15 354.81
  C 553.72 358.19 552.35 364.21 557.60 365.56
  Q 559.36 366.01 560.76 364.80
  Q 566.55 359.81 571.80 356.77
  Q 575.68 354.53 577.83 352.77
  Q 582.78 348.72 583.32 348.00
  Q 591.36 337.40 582.67 328.26
  C 581.39 326.91 578.23 325.39 576.62 325.31
  Q 572.16 325.08 555.71 325.35
  Q 503.10 325.62 450.50 325.53
  Q 443.23 325.52 439.44 331.18
  Q 434.54 338.52 439.51 346.74
  A 3.74 3.38 8.5 0 0 440.15 347.52
  Q 445.95 353.00 450.98 355.78
  Q 457.21 359.22 460.54 361.52
  Q 452.84 358.93 444.06 352.43
  C 439.07 348.75 436.05 344.94 436.06 338.85
  C 436.08 327.94 444.45 324.04 454.03 324.10
  C 481.78 324.27 502.67 323.70 526.55 323.96
  C 538.66 324.09 549.58 323.61 561.26 323.86
  C 565.40 323.94 570.28 323.34 573.66 322.22
  Q 581.24 319.72 581.93 311.44
  Q 582.45 305.14 582.65 296.29
  Q 582.79 289.97 585.35 280.35
  C 587.60 271.90 592.98 262.47 596.56 253.87
  C 604.75 234.18 602.68 215.46 582.72 203.80
  Q 577.29 200.63 569.40 196.05
  Q 557.94 189.39 552.23 176.58
  Q 545.42 161.31 545.33 161.12
  C 539.43 149.40 532.18 140.86 522.35 130.89
  A 2.45 2.42 -13.4 0 0 521.36 130.29
  Q 513.40 127.86 506.25 127.49
  A 6.27 6.27 0.0 0 0 501.69 129.12
  C 492.06 137.92 482.80 147.76 476.32 158.47
  Q 469.86 169.15 466.40 174.59
  C 461.74 181.92 455.81 187.75 447.97 193.25
  Q 440.84 198.25 437.71 200.46
  Q 421.61 211.79 420.84 231.33
  C 420.26 246.05 425.85 259.96 430.53 274.22
  Q 435.99 290.87 433.46 307.60
  C 432.10 316.67 429.19 326.91 425.80 336.36
  C 421.05 349.62 414.38 358.11 400.81 361.36
  Q 395.43 362.65 384.62 364.98
  C 364.31 369.34 360.01 386.65 353.51 403.40
  C 349.93 412.65 344.73 421.41 340.82 429.93
  Q 338.17 435.68 337.30 439.88
  C 332.63 462.24 353.69 470.68 371.87 471.54
  Q 389.45 472.37 395.02 472.78
  C 413.54 474.15 431.90 483.43 427.35 505.23
  Q 426.30 510.24 424.31 514.86
  C 417.02 531.75 409.40 549.08 401.32 561.79
  Q 393.71 573.77 389.66 581.93
  C 381.25 598.89 381.66 615.40 387.46 633.44
  A 0.70 0.69 80.7 0 0 388.12 633.92
  Q 412.09 633.88 443.95 634.84
  C 451.50 635.07 459.72 634.07 467.21 635.51
  Q 428.23 635.88 389.25 635.69
  C 382.04 635.65 382.74 643.76 383.23 649.68
  Q 383.29 650.44 383.74 650.62
  Q 384.23 650.83 384.95 650.73
  Q 388.28 651.68 390.76 651.73
  Q 414.18 652.28 444.55 651.83
  C 459.18 651.61 474.76 652.00 485.93 651.83
  C 502.91 651.57 517.79 652.13 536.44 652.01
  A 0.61 0.61 0.0 0 1 537.06 652.59
  Q 537.64 662.61 539.30 669.11
  Q 541.00 675.75 545.09 686.43
  Q 548.26 694.71 550.70 710.13
  C 551.86 717.43 550.67 725.96 551.47 732.80
  A 1.49 1.48 -8.1 0 0 553.20 734.09
  Q 556.15 733.60 558.78 734.64
  A 3.61 3.60 56.4 0 0 559.96 734.88
  Q 581.23 735.28 594.94 738.53
  Q 613.84 743.02 620.97 744.67
  C 632.07 747.23 644.90 747.46 659.29 746.87
  C 674.88 746.24 689.69 747.02 704.90 747.69
  Q 710.92 747.96 715.30 747.89
  C 736.94 747.54 746.27 747.15 757.53 747.68
  Q 763.67 747.96 776.52 749.25
  C 784.83 750.08 792.51 749.93 800.66 750.33
  Q 807.57 750.67 813.46 753.49
  A 0.29 0.28 -31.9 0 1 813.33 754.03
  L 804.62 754.03
  A 1.09 1.07 23.1 0 0 803.88 754.32
  Q 801.24 756.82 800.02 760.13
  A 0.69 0.58 -39.8 0 0 799.98 760.35
  L 799.98 835.85
  A 0.55 0.55 0.0 0 1 799.36 836.40
  L 792.38 835.49
  A 1.18 1.15 -45.7 0 0 791.98 835.50
  L 788.24 836.21
  A 0.51 0.51 0.0 0 1 787.64 835.80
  Q 787.61 835.67 787.61 835.63
  A 0.76 0.74 -70.0 0 0 787.34 835.03
  Q 784.86 832.89 783.94 831.50
  Q 773.18 815.18 769.79 810.14
  A 0.69 0.69 0.0 0 1 770.01 809.17
  C 777.02 804.98 781.93 798.30 783.16 790.02
  C 784.77 779.14 783.08 770.18 774.78 762.71
  C 767.70 756.33 757.04 753.87 747.32 754.05
  C 738.18 754.21 730.92 753.38 722.24 753.61
  A 2.76 2.76 0.0 0 0 719.55 756.30
  C 719.15 772.64 719.92 796.18 719.39 816.14
  Q 718.90 834.45 718.71 836.57
  A 0.31 0.31 0.0 0 1 718.10 836.63
  Q 718.07 836.54 718.15 835.88
  A 0.42 0.41 -2.0 0 0 717.65 835.42
  Q 710.82 836.86 702.83 836.40
  A 0.63 0.63 0.0 0 1 702.25 835.89
  Q 701.01 829.61 701.08 826.97
  Q 701.74 799.89 701.10 776.32
  C 700.90 768.88 701.27 762.53 701.16 755.72
  A 1.11 1.11 0.0 0 0 700.24 754.64
  Q 692.80 753.33 685.22 754.57
  A 0.76 0.76 0.0 0 0 684.61 755.12
  Q 683.44 759.64 683.43 761.97
  Q 683.35 792.29 683.15 826.20
  A 0.51 0.50 -6.5 0 1 682.75 826.69
  Q 677.65 827.83 673.04 827.89
  C 660.97 828.03 658.27 818.48 657.05 808.51
  L 670.85 757.15
  A 0.79 0.79 0.0 0 0 670.09 756.16
  L 656.31 756.16
  A 0.63 0.62 -83.6 0 0 655.70 756.65
  L 642.09 812.46
  L 640.77 820.11
  A 0.17 0.17 0.0 0 1 640.43 820.12
  L 634.54 794.56
  L 624.49 757.11
  A 1.35 1.34 82.4 0 0 623.19 756.11
  L 610.17 756.11
  A 0.68 0.67 -82.8 0 0 609.52 756.62
  L 595.28 810.73
  L 593.72 818.62
  A 0.18 0.18 0.0 0 1 593.37 818.63
  L 592.94 817.00
  L 585.00 782.56
  Q 585.19 776.37 583.97 772.53
  Q 581.49 764.67 579.98 756.63
  A 3.22 3.20 85.9 0 0 576.97 754.01
  Q 569.12 753.66 561.67 755.29
  A 0.92 0.91 -13.9 0 0 560.98 756.42
  L 578.18 819.33
  A 0.26 0.26 0.0 0 1 577.86 819.65
  Q 570.66 817.85 565.79 810.04
  C 558.70 798.67 554.76 786.45 550.36 774.30
  C 549.05 770.68 546.59 765.26 543.41 762.86
  C 539.43 759.84 536.41 764.53 535.19 767.88
  C 530.71 780.24 531.63 792.08 531.66 808.74
  Q 531.67 812.14 530.29 815.13
  A 0.20 0.19 55.4 0 1 529.92 815.06
  Q 529.27 808.08 527.92 806.35
  Q 522.16 798.91 515.48 792.97
  A 2.12 2.05 -13.3 0 0 514.77 792.55
  Q 510.85 791.14 506.45 791.09
  Q 500.15 789.20 493.32 786.14
  C 488.70 784.07 485.03 780.77 486.50 775.49
  C 487.81 770.81 493.71 769.22 498.27 768.98
  C 505.56 768.60 512.12 770.48 518.92 773.07
  A 0.62 0.62 0.0 0 0 519.73 772.68
  L 523.46 761.09
  A 0.70 0.70 0.0 0 0 523.08 760.24
  Q 508.53 753.62 492.75 755.58
  C 481.83 756.93 471.54 764.08 470.91 775.90
  Q 470.64 780.98 471.66 784.56
  C 475.21 797.12 489.88 800.43 503.35 805.43
  Q 507.54 806.99 510.08 809.35
  C 516.13 814.95 511.98 823.34 504.67 824.73
  C 494.97 826.57 484.52 824.30 475.75 819.49
  A 0.60 0.59 29.7 0 0 474.96 819.70
  Q 474.48 820.49 474.38 821.48
  Q 473.24 821.44 472.28 822.31
  A 0.69 0.66 80.3 0 0 472.08 822.61
  L 469.41 830.91
  A 3.04 3.03 -66.2 0 0 470.78 834.47
  L 476.56 837.80
  A 1.27 1.27 0.0 0 1 476.40 840.07
  Q 474.30 840.92 472.55 840.88
  Q 461.80 840.60 456.92 840.85
  C 448.95 841.25 442.31 842.61 433.90 843.52
  C 425.06 844.47 417.90 843.92 406.87 843.57
  C 394.08 843.16 384.12 843.85 365.61 844.71
  Q 354.77 845.21 342.80 844.09
  Q 322.42 842.17 304.20 839.25
  Q 304.14 839.24 303.96 839.16
  A 0.06 0.06 0.0 0 1 303.98 839.04
  L 314.99 839.04
  A 0.73 0.72 -84.1 0 0 315.70 838.46
  Q 316.40 835.26 315.83 832.04
  L 315.93 757.24
  A 1.09 1.09 0.0 0 0 314.84 756.15
  L 301.56 756.15
  A 0.66 0.66 0.0 0 0 300.90 756.81
  L 300.90 788.40
  A 0.66 0.65 -0.0 0 1 300.24 789.05
  L 266.48 789.05
  A 0.47 0.47 0.0 0 1 266.01 788.58
  L 266.06 762.77
  L 266.35 765.81
  A 0.28 0.24 88.4 0 0 266.58 766.07
  L 266.61 766.07
  A 0.04 0.02 90.0 0 0 266.63 766.03
  L 267.26 757.78
  A 0.76 0.76 0.0 0 0 266.99 757.14
  Q 263.58 754.26 261.12 754.01
  Q 258.18 753.71 250.75 754.78
  A 1.23 1.22 -74.6 0 0 249.98 755.22
  Q 248.73 756.72 249.65 757.98
  A 0.69 0.68 27.4 0 1 249.78 758.38
  L 249.05 836.65
  A 0.79 0.78 -13.6 0 1 248.62 837.35
  C 244.77 839.32 240.74 839.14 236.29 838.84
  Q 234.31 838.71 232.69 838.08
  A 1.03 1.03 0.0 0 1 232.22 836.53
  Q 233.15 835.20 234.63 834.30
  A 1.19 1.19 0.0 0 0 235.20 833.42
  L 235.61 829.61
  A 1.15 1.08 -55.8 0 0 235.51 828.99
  L 230.80 819.31
  A 0.87 0.86 7.5 0 0 230.62 819.08
  Q 229.25 817.78 227.16 818.63
  Q 221.94 820.74 217.22 823.86
  C 208.47 825.03 199.82 824.48 192.85 818.48
  Q 187.05 812.94 185.44 805.56
  C 182.95 794.17 185.06 779.82 195.64 773.39
  C 204.51 768.00 217.77 769.20 227.14 773.77
  A 0.99 0.99 0.0 0 0 228.46 773.33
  L 233.73 762.81
  A 0.58 0.57 29.5 0 0 233.52 762.06
  Q 224.57 756.57 214.32 755.42
  Q 190.19 752.71 176.28 771.68
  Q 171.86 774.62 170.16 781.14
  C 165.34 799.63 167.48 817.29 181.96 830.91
  Q 184.89 833.66 189.38 835.40
  Q 195.76 837.86 200.99 839.69
  A 3.37 3.32 54.3 0 0 202.10 839.88
  C 207.01 839.95 211.03 839.80 214.49 841.88
  A 0.66 0.66 0.0 0 1 214.41 843.05
  Q 211.94 844.12 209.59 844.13
  Q 188.46 844.20 173.48 830.49
  C 162.00 819.98 156.29 803.23 158.48 787.64
  Q 160.38 774.13 168.72 762.76
  C 177.39 750.93 191.10 745.40 205.91 744.34
  Q 224.14 743.03 245.94 746.19
  C 266.15 749.12 280.50 751.15 299.42 749.12
  Q 310.45 747.93 339.83 742.68
  C 355.03 739.97 369.35 740.59 385.22 740.49
  C 404.79 740.36 427.50 733.29 423.52 708.66
  Q 420.45 689.73 405.09 676.74
  Q 401.21 673.46 389.04 664.89
  C 379.86 658.42 372.58 649.86 364.58 638.54
  Q 356.54 627.16 350.22 619.01
  A 3.72 3.28 4.6 0 0 349.64 618.41
  Q 336.36 607.48 324.58 594.64
  Q 318.73 588.27 313.81 581.22
  Q 315.49 577.78 319.31 576.49
  Q 337.61 600.00 361.13 618.42
  A 0.56 0.54 -48.7 0 0 361.86 618.36
  C 368.49 611.45 369.94 603.22 372.81 593.46
  Q 375.43 584.51 380.92 575.82
  Q 392.94 556.78 395.85 551.93
  Q 405.43 535.96 412.45 517.22
  Q 414.80 510.93 415.54 505.06
  C 417.61 488.50 402.41 483.97 388.96 482.66
  C 374.06 481.21 354.26 481.13 341.30 470.95
  C 325.83 458.80 328.49 439.10 334.93 422.99
  C 340.12 410.00 345.40 395.93 351.81 383.13
  Q 361.32 364.17 380.68 357.46
  C 393.91 352.88 405.79 349.90 413.65 337.93
  C 418.72 330.23 421.85 320.75 423.90 312.01
  Q 427.82 295.24 423.11 278.19
  C 419.80 266.21 414.33 253.06 413.52 239.20
  C 412.49 221.57 418.88 206.41 432.57 194.83
  Q 437.33 190.81 443.11 186.20
  C 450.83 180.05 457.24 173.07 462.45 165.09
  Q 467.75 156.97 472.21 150.71
  C 480.09 139.65 489.56 131.67 501.13 123.41
  A 2.50 2.45 -67.4 0 1 502.07 123.01
  L 504.96 122.48
  A 2.01 1.97 -41.1 0 1 505.96 122.54
  Q 507.16 122.89 515.20 125.48
  Q 538.06 132.83 550.32 152.37
  Q 557.51 163.82 562.28 171.69
  Q 566.53 178.70 572.44 184.73
  C 577.90 190.30 586.89 196.05 592.44 200.67
  C 604.02 210.29 611.40 222.80 609.77 238.17
  C 608.33 251.71 603.18 260.80 596.09 276.90
  Q 590.18 290.33 591.75 308.24
  C 592.28 314.39 594.65 324.45 594.84 331.38
  Q 595.30 348.16 586.29 363.67
  Q 584.29 367.10 576.75 378.85
  Q 568.53 391.67 566.48 407.22
  C 564.02 425.83 565.40 442.56 574.83 458.33
  Q 576.97 461.90 582.36 470.48
  C 589.94 482.56 594.14 491.87 601.49 508.69
  Q 609.32 526.63 612.90 545.64
  C 614.46 553.89 615.95 563.75 605.98 566.77
  Z"
/>
<path d="
  M 287.23 335.71
  Q 265.06 385.59 265.87 440.20
  Q 265.71 439.86 265.65 439.33
  A 0.40 0.40 0.0 0 0 265.04 439.04
  C 263.04 440.28 263.26 446.26 263.54 448.41
  Q 264.96 458.93 266.24 469.26
  Q 272.11 516.75 296.08 557.44
  A 0.07 0.06 89.6 0 1 296.00 557.53
  Q 288.78 552.98 283.42 545.70
  Q 273.65 532.43 267.38 517.64
  Q 251.60 480.43 249.73 441.01
  Q 248.49 414.65 251.57 392.79
  Q 254.49 372.13 263.12 349.68
  Q 273.37 323.04 287.15 300.04
  C 298.25 281.53 314.06 265.95 333.25 255.86
  Q 338.19 253.25 343.40 253.85
  A 0.25 0.24 26.1 0 1 343.55 254.27
  Q 315.85 280.41 297.09 312.81
  C 292.75 320.30 288.02 327.82 287.23 335.71
  Z"
/>
<path d="
  M 278.42 486.46
  Q 274.82 470.45 273.79 454.00
  Q 270.24 397.33 291.64 344.98
  Q 300.84 329.00 309.88 312.93
  Q 313.08 307.25 322.73 293.75
  Q 331.96 280.83 343.06 270.62
  C 344.87 268.96 349.28 265.35 351.92 265.51
  A 1.22 1.22 0.0 0 1 353.07 266.82
  Q 352.92 269.07 351.67 271.27
  C 348.08 277.61 343.88 283.80 340.93 290.51
  C 333.33 307.76 327.66 316.74 314.63 340.33
  Q 303.98 359.61 297.83 386.18
  Q 296.16 393.40 293.02 417.06
  Q 290.69 434.70 290.66 450.96
  C 290.64 461.61 292.02 476.17 292.75 485.20
  Q 293.95 500.01 297.03 513.22
  C 298.31 518.73 300.93 524.96 301.85 530.84
  Q 302.11 532.56 301.65 534.49
  A 1.21 1.20 13.6 0 1 300.19 535.38
  C 296.10 534.36 290.19 519.79 288.89 516.03
  Q 283.76 501.25 278.42 486.46
  Z"
/>
</g>
<g fill="#008bd7">
<path d="
  M 556.15 354.81
  Q 558.39 352.19 559.90 351.14
  Q 566.90 346.27 573.73 341.02
  A 0.53 0.53 0.0 0 0 573.56 340.09
  Q 573.09 339.94 572.20 340.02
  Q 568.03 339.14 565.93 339.15
  Q 538.15 339.18 530.66 339.07
  A 0.78 0.78 0.0 0 1 529.89 338.30
  L 529.73 327.51
  A 0.65 0.65 0.0 0 1 530.39 326.85
  Q 540.87 327.02 550.51 326.68
  Q 552.76 326.61 555.71 325.35
  Q 572.16 325.08 576.62 325.31
  C 578.23 325.39 581.39 326.91 582.67 328.26
  Q 591.36 337.40 583.32 348.00
  Q 582.78 348.72 577.83 352.77
  Q 575.68 354.53 571.80 356.77
  Q 566.55 359.81 560.76 364.80
  Q 559.36 366.01 557.60 365.56
  C 552.35 364.21 553.72 358.19 556.15 354.81
  Z"
/>
<path d="
  M 816.33 823.07
  Q 816.31 823.38 816.57 823.70
  A 0.80 0.76 69.1 0 0 817.17 823.99
  L 853.56 823.99
  A 0.73 0.73 0.0 0 1 854.29 824.72
  L 854.29 837.26
  A 0.58 0.58 0.0 0 1 853.71 837.84
  L 802.51 837.84
  A 0.57 0.57 0.0 0 1 801.94 837.27
  L 801.96 826.31
  Q 803.39 817.27 812.39 816.98
  C 814.63 816.91 815.79 821.20 816.33 823.07
  Z"
/>
</g>
<path fill="#004168" d="
  M 402.24 611.91
  Q 396.11 602.72 403.86 594.07
  Q 408.43 588.96 413.51 585.25
  Q 422.59 578.62 431.47 571.72
  C 440.47 564.72 442.69 556.27 444.41 545.51
  Q 450.80 544.84 457.18 545.39
  Q 462.26 545.83 463.93 550.22
  Q 464.62 552.04 463.99 556.77
  Q 463.87 557.69 459.61 590.59
  C 458.74 597.33 457.51 606.09 452.86 611.38
  A 1.56 1.53 19.9 0 1 451.72 611.90
  L 405.59 612.58
  A 1.77 1.64 47.2 0 1 405.33 612.56
  L 402.24 611.91
  Z"
/>
<g fill="#00e6fe">
<path d="
  M 435.90 387.75
  Q 438.24 388.90 430.83 389.62
  C 427.21 389.98 423.72 393.48 419.92 393.60
  Q 414.29 393.77 409.44 394.56
  A 0.06 0.06 0.0 0 0 409.44 394.68
  C 421.77 395.09 432.94 395.79 442.90 395.61
  Q 445.72 395.55 446.00 396.94
  L 403.94 396.92
  A 1.71 1.71 0.0 0 0 402.43 397.83
  C 398.93 404.47 393.01 408.44 385.28 407.93
  C 375.45 407.29 368.16 399.07 369.10 389.17
  C 370.13 378.37 379.12 371.63 389.77 373.21
  Q 400.45 374.79 403.91 386.86
  A 0.64 0.64 0.0 0 0 404.53 387.33
  L 435.90 387.75
  Z"
/>
<path d="
  M 395.12 441.71
  Q 393.85 446.94 397.12 450.96
  L 377.12 450.85
  A 1.93 1.92 11.6 0 0 375.33 452.02
  Q 371.91 460.01 365.08 462.36
  C 350.28 467.47 337.24 453.20 343.48 438.82
  C 349.87 424.10 370.59 425.36 375.82 440.54
  A 1.21 1.20 -8.7 0 0 376.93 441.35
  L 395.12 441.71
  Z"
/>
<path d="
  M 657.05 808.51
  L 656.69 809.75
  C 655.91 804.95 658.74 796.67 659.60 793.84
  A 0.87 0.85 32.9 0 0 659.41 793.00
  Q 655.71 788.91 649.93 788.12
  A 0.53 0.53 0.0 0 0 649.35 788.51
  Q 647.09 797.05 644.55 807.77
  Q 644.09 809.74 642.09 812.46
  L 655.70 756.65
  A 0.63 0.62 -83.6 0 1 656.31 756.16
  L 670.09 756.16
  A 0.79 0.79 0.0 0 1 670.85 757.15
  L 657.05 808.51
  Z"
/>
</g>
<path fill="#0270b4" d="
  M 547.78 613.85
  L 545.22 617.34
  A 0.04 0.04 0.0 0 1 545.15 617.33
  Q 545.12 617.27 545.05 617.10
  A 0.04 0.04 0.0 0 0 544.98 617.11
  Q 544.76 619.49 545.73 621.59
  A 0.24 0.23 -22.3 0 0 546.02 621.71
  Q 546.14 621.66 546.12 621.45
  Q 546.11 621.32 546.15 621.41
  Q 546.19 621.49 547.28 622.19
  A 0.41 0.41 0.0 0 1 547.29 622.87
  Q 546.61 623.34 544.94 623.31
  L 511.46 623.53
  L 459.49 624.17
  Q 458.19 622.25 459.49 621.14
  Q 463.10 618.04 468.17 616.47
  Q 471.61 615.41 477.96 615.29
  Q 487.00 615.13 496.57 614.91
  L 505.89 615.41
  L 514.36 616.02
  A 2.31 2.25 -49.9 0 0 515.15 615.94
  Q 518.81 614.89 521.94 616.31
  A 0.36 0.35 -69.3 0 0 522.42 616.09
  L 522.53 615.76
  A 0.27 0.26 -68.3 0 0 522.40 615.45
  L 520.84 614.66
  L 521.96 614.38
  A 0.31 0.31 0.0 0 0 522.16 613.93
  L 521.99 613.60
  L 547.78 613.85
  Z"
/>
<g fill="#00122a">
<path d="
  M 460.54 361.52
  C 469.79 367.97 469.68 377.31 470.79 387.21
  A 0.42 0.41 86.9 0 1 470.38 387.67
  L 435.90 387.75
  L 404.53 387.33
  A 0.64 0.64 0.0 0 1 403.91 386.86
  Q 400.45 374.79 389.77 373.21
  C 379.12 371.63 370.13 378.37 369.10 389.17
  C 368.16 399.07 375.45 407.29 385.28 407.93
  C 393.01 408.44 398.93 404.47 402.43 397.83
  A 1.71 1.71 0.0 0 1 403.94 396.92
  L 446.00 396.94
  L 470.16 396.91
  A 0.41 0.41 0.0 0 1 470.57 397.33
  Q 469.56 425.16 465.17 454.68
  Q 464.71 457.78 463.94 460.35
  A 0.75 0.75 0.0 0 1 463.25 460.89
  C 456.96 461.17 445.58 462.10 443.09 459.66
  Q 441.19 457.80 431.01 446.24
  C 428.10 442.93 426.35 441.64 421.51 441.63
  Q 408.22 441.62 395.12 441.71
  L 376.93 441.35
  A 1.21 1.20 -8.7 0 1 375.82 440.54
  C 370.59 425.36 349.87 424.10 343.48 438.82
  C 337.24 453.20 350.28 467.47 365.08 462.36
  Q 371.91 460.01 375.33 452.02
  A 1.93 1.92 11.6 0 1 377.12 450.85
  L 397.12 450.96
  Q 409.12 451.00 421.31 451.04
  Q 423.53 451.05 424.60 452.27
  Q 435.69 465.04 438.59 468.03
  Q 440.53 470.04 443.10 470.16
  Q 450.75 470.50 461.60 470.18
  A 0.59 0.58 -85.3 0 1 462.19 470.89
  Q 458.11 490.28 450.26 507.52
  Q 446.83 515.06 443.25 520.49
  C 440.61 524.49 437.22 526.46 432.73 528.41
  Q 429.61 529.76 428.20 531.16
  C 421.91 537.39 424.87 546.28 433.20 548.37
  A 0.53 0.53 0.0 0 1 433.58 549.02
  Q 431.75 555.95 430.65 557.38
  Q 428.32 560.42 419.45 566.93
  Q 406.99 576.07 405.80 577.05
  C 399.52 582.19 393.84 587.22 390.77 594.26
  C 387.06 602.81 389.06 613.17 394.85 620.38
  C 397.02 623.09 399.36 624.45 402.75 624.44
  Q 431.09 624.30 459.49 624.17
  L 511.46 623.53
  L 506.99 623.68
  A 0.31 0.31 0.0 0 0 506.90 624.28
  L 512.84 626.19
  A 0.24 0.23 -76.3 0 1 513.00 626.46
  Q 512.87 627.05 513.32 627.64
  A 0.31 0.29 -63.3 0 1 513.38 627.85
  Q 513.38 628.20 513.14 628.27
  A 0.10 0.09 -42.4 0 0 513.13 628.45
  Q 514.28 628.89 515.47 629.88
  A 1.44 1.26 38.8 0 1 515.80 631.73
  C 514.05 633.99 506.96 634.09 503.86 634.06
  A 0.57 0.57 0.0 0 0 503.30 634.75
  L 503.48 635.61
  L 492.51 635.81
  L 467.21 635.51
  C 459.72 634.07 451.50 635.07 443.95 634.84
  Q 412.09 633.88 388.12 633.92
  A 0.70 0.69 80.7 0 1 387.46 633.44
  C 381.66 615.40 381.25 598.89 389.66 581.93
  Q 393.71 573.77 401.32 561.79
  C 409.40 549.08 417.02 531.75 424.31 514.86
  Q 426.30 510.24 427.35 505.23
  C 431.90 483.43 413.54 474.15 395.02 472.78
  Q 389.45 472.37 371.87 471.54
  C 353.69 470.68 332.63 462.24 337.30 439.88
  Q 338.17 435.68 340.82 429.93
  C 344.73 421.41 349.93 412.65 353.51 403.40
  C 360.01 386.65 364.31 369.34 384.62 364.98
  Q 395.43 362.65 400.81 361.36
  C 414.38 358.11 421.05 349.62 425.80 336.36
  C 429.19 326.91 432.10 316.67 433.46 307.60
  Q 435.99 290.87 430.53 274.22
  C 425.85 259.96 420.26 246.05 420.84 231.33
  Q 421.61 211.79 437.71 200.46
  Q 440.84 198.25 447.97 193.25
  C 455.81 187.75 461.74 181.92 466.40 174.59
  Q 469.86 169.15 476.32 158.47
  C 482.80 147.76 492.06 137.92 501.69 129.12
  A 6.27 6.27 0.0 0 1 506.25 127.49
  Q 513.40 127.86 521.36 130.29
  A 2.45 2.42 -13.4 0 1 522.35 130.89
  C 532.18 140.86 539.43 149.40 545.33 161.12
  Q 545.42 161.31 552.23 176.58
  Q 557.94 189.39 569.40 196.05
  Q 577.29 200.63 582.72 203.80
  C 602.68 215.46 604.75 234.18 596.56 253.87
  C 592.98 262.47 587.60 271.90 585.35 280.35
  Q 582.79 289.97 582.65 296.29
  Q 582.45 305.14 581.93 311.44
  Q 581.24 319.72 573.66 322.22
  C 570.28 323.34 565.40 323.94 561.26 323.86
  C 549.58 323.61 538.66 324.09 526.55 323.96
  C 502.67 323.70 481.78 324.27 454.03 324.10
  C 444.45 324.04 436.08 327.94 436.06 338.85
  C 436.05 344.94 439.07 348.75 444.06 352.43
  Q 452.84 358.93 460.54 361.52
  Z"
/>
<path d="
  M 485.40 649.98
  L 493.04 650.63
  L 439.21 650.68
  L 485.40 649.98
  Z"
/>
</g>
<path fill="#003063" d="
  M 605.98 566.77
  C 614.49 573.08 622.99 578.85 629.56 587.14
  C 638.02 597.84 637.47 612.01 627.49 621.47
  Q 625.91 622.97 623.82 623.18
  Q 618.51 623.71 605.27 623.44
  Q 602.94 623.40 559.25 623.75
  Q 555.29 623.78 544.94 623.31
  Q 546.61 623.34 547.29 622.87
  A 0.41 0.41 0.0 0 0 547.28 622.19
  Q 546.19 621.49 546.15 621.41
  Q 546.11 621.32 546.12 621.45
  Q 546.14 621.66 546.02 621.71
  A 0.24 0.23 -22.3 0 1 545.73 621.59
  Q 544.76 619.49 544.98 617.11
  A 0.04 0.04 0.0 0 1 545.05 617.10
  Q 545.12 617.27 545.15 617.33
  A 0.04 0.04 0.0 0 0 545.22 617.34
  L 547.78 613.85
  Q 549.24 613.28 550.80 614.22
  A 0.69 0.68 -7.0 0 0 551.64 613.15
  L 539.01 600.54
  Q 541.80 596.64 547.64 597.27
  Q 554.87 604.07 561.80 611.70
  Q 563.35 613.41 566.28 613.37
  Q 583.50 613.14 592.03 613.48
  A 0.36 0.35 -21.5 0 0 592.30 612.87
  L 570.30 591.35
  C 568.41 586.19 572.04 585.46 576.08 585.67
  Q 589.75 598.28 602.36 612.14
  Q 603.42 613.30 606.03 613.26
  Q 610.90 613.20 619.18 613.03
  C 621.21 613.00 622.16 612.19 623.07 610.37
  Q 627.73 601.11 620.65 593.11
  Q 616.96 588.93 612.59 585.43
  Q 609.42 582.89 594.76 572.01
  Q 586.45 565.84 582.87 556.02
  Q 587.47 552.50 591.38 547.35
  Q 592.30 553.56 595.14 557.11
  Q 599.75 562.87 605.98 566.77
  Z"
/>
<path fill="#00b8f0" d="
  M 309.45 309.83
  Q 299.22 326.93 291.64 344.98
  Q 270.24 397.33 273.79 454.00
  Q 274.82 470.45 278.42 486.46
  Q 284.79 516.52 298.84 543.91
  Q 294.97 540.31 292.92 535.53
  A 0.44 0.43 -44.7 0 0 292.12 535.53
  Q 291.52 536.85 290.30 536.81
  A 0.64 0.64 0.0 0 0 289.65 537.58
  L 291.44 545.91
  Q 265.95 496.24 265.87 440.20
  Q 265.06 385.59 287.23 335.71
  Q 293.14 322.30 300.82 309.74
  Q 299.55 315.97 295.93 321.40
  C 294.99 322.81 293.33 326.85 295.88 328.50
  A 0.30 0.29 -49.1 0 1 295.91 328.97
  L 295.27 329.53
  A 0.45 0.44 -41.8 0 0 295.23 330.16
  L 295.67 330.67
  A 0.38 0.38 0.0 0 0 296.30 330.58
  Q 301.73 319.05 309.45 309.83
  Z"
/>
<g fill="#001a37">
<path d="
  M 542.52 354.67
  L 541.52 355.38
  Q 537.19 352.31 532.52 353.80
  Q 524.05 356.50 524.49 365.64
  C 524.68 369.76 526.67 372.26 529.89 373.94
  A 1.69 1.68 13.6 0 1 530.81 375.44
  L 530.80 407.29
  Q 530.87 430.58 530.92 453.86
  Q 530.93 456.91 532.03 458.00
  Q 556.26 481.97 558.04 483.75
  Q 558.92 484.63 558.94 486.77
  Q 559.22 512.05 558.72 533.31
  C 558.67 535.74 558.90 539.77 558.90 543.06
  A 0.91 0.90 0.3 0 0 559.81 543.97
  L 573.28 543.94
  L 579.70 544.06
  A 1.13 1.12 85.0 0 1 580.79 544.98
  L 582.87 556.02
  Q 586.45 565.84 594.76 572.01
  Q 609.42 582.89 612.59 585.43
  Q 616.96 588.93 620.65 593.11
  Q 627.73 601.11 623.07 610.37
  C 622.16 612.19 621.21 613.00 619.18 613.03
  Q 610.90 613.20 606.03 613.26
  Q 603.42 613.30 602.36 612.14
  Q 589.75 598.28 576.08 585.67
  Q 562.59 572.56 549.09 559.65
  Q 547.54 558.16 547.53 555.51
  Q 547.44 517.85 547.70 496.66
  Q 547.72 494.92 547.25 493.70
  A 2.10 2.06 11.4 0 0 546.74 492.95
  Q 543.84 490.24 541.34 488.12
  Q 539.08 486.19 539.17 484.60
  Q 539.52 478.41 535.32 475.16
  C 528.36 469.75 519.37 475.80 522.27 484.27
  C 523.80 488.71 527.80 490.14 532.31 490.93
  A 2.61 2.52 -16.8 0 1 533.69 491.64
  L 538.96 496.91
  A 2.22 2.19 22.8 0 1 539.61 498.47
  L 539.61 560.58
  A 2.83 2.81 -68.3 0 0 540.48 562.62
  L 570.30 591.35
  L 592.30 612.87
  A 0.36 0.35 -21.5 0 1 592.03 613.48
  Q 583.50 613.14 566.28 613.37
  Q 563.35 613.41 561.80 611.70
  Q 554.87 604.07 547.64 597.27
  L 541.79 591.53
  Q 533.51 583.27 525.37 575.13
  Q 524.23 573.99 524.23 571.49
  Q 524.17 538.18 524.22 515.00
  C 524.23 512.96 523.88 511.86 522.39 510.46
  Q 512.39 501.07 509.48 498.02
  C 508.10 496.56 507.69 495.01 507.69 492.84
  Q 507.64 443.66 507.79 408.01
  A 2.52 2.51 -14.8 0 1 509.05 405.85
  Q 515.93 401.91 515.02 393.88
  C 514.35 387.98 508.82 383.76 503.25 383.97
  C 495.12 384.27 490.49 390.76 492.15 398.74
  Q 493.28 404.22 498.89 406.53
  A 0.89 0.87 -79.2 0 1 499.44 407.35
  Q 499.38 441.19 499.42 497.00
  Q 499.43 499.43 500.18 500.98
  A 2.19 2.19 0.0 0 0 500.63 501.60
  Q 506.75 507.51 514.32 514.72
  C 515.61 515.95 516.09 517.06 516.15 518.94
  Q 516.36 524.71 515.95 530.42
  Q 515.50 528.33 514.48 521.08
  C 513.63 515.09 508.53 510.86 503.63 506.44
  C 499.13 502.40 497.83 499.35 497.86 493.25
  Q 497.98 464.12 497.90 447.65
  Q 497.89 445.35 498.10 441.42
  C 498.25 438.63 497.88 435.81 497.98 433.14
  Q 498.35 422.28 497.79 408.23
  A 1.14 1.12 -71.7 0 0 497.38 407.40
  Q 493.70 404.36 492.79 402.99
  Q 488.19 396.05 492.24 389.09
  Q 494.63 384.99 498.89 383.76
  Q 507.85 381.19 513.78 387.46
  A 0.56 0.56 0.0 0 0 514.55 387.49
  Q 521.05 381.63 525.36 372.98
  A 0.92 0.90 43.4 0 0 525.33 372.13
  C 521.40 365.50 522.49 357.87 529.18 353.80
  C 533.42 351.22 538.59 351.70 542.52 354.67
  Z"
/>
<path d="
  M 520.84 614.66
  L 522.40 615.45
  A 0.27 0.26 -68.3 0 1 522.53 615.76
  L 522.42 616.09
  A 0.36 0.35 -69.3 0 1 521.94 616.31
  Q 518.81 614.89 515.15 615.94
  A 2.31 2.25 -49.9 0 1 514.36 616.02
  L 505.89 615.41
  L 520.84 614.66
  Z"
/>
</g>
<g fill="#00d1fc">
<path d="
  M 634.54 794.56
  C 631.76 791.49 624.51 786.08 622.44 793.50
  Q 621.83 795.70 621.78 798.08
  L 617.11 779.01
  A 0.18 0.18 0.0 0 0 616.76 779.01
  C 616.07 781.92 615.91 784.44 615.00 787.75
  Q 610.19 805.28 605.04 822.76
  Q 605.00 819.32 605.37 817.83
  Q 607.66 808.55 608.88 802.98
  A 0.85 0.84 -84.3 0 0 608.04 801.95
  L 600.36 802.06
  A 1.27 1.26 4.8 0 0 599.14 803.09
  Q 598.38 807.12 595.28 810.73
  L 609.52 756.62
  A 0.68 0.67 -82.8 0 1 610.17 756.11
  L 623.19 756.11
  A 1.35 1.34 82.4 0 1 624.49 757.11
  L 634.54 794.56
  Z"
/>
<path d="
  M 816.31 808.52
  L 816.21 813.82
  A 0.13 0.12 -87.4 0 1 816.09 813.94
  L 815.82 813.94
  A 0.04 0.03 -0.0 0 1 815.78 813.91
  L 815.29 803.70
  A 1.33 1.33 0.0 0 1 816.60 802.31
  L 845.59 801.88
  A 0.96 0.96 0.0 0 0 846.54 800.91
  L 846.41 792.51
  A 1.05 1.04 -0.5 0 0 845.35 791.48
  L 817.94 791.89
  A 3.45 3.42 56.9 0 1 816.45 791.57
  C 810.60 788.88 805.46 790.90 803.15 796.78
  Q 802.52 798.39 801.94 800.06
  L 801.96 756.72
  A 0.56 0.56 0.0 0 1 802.52 756.16
  L 851.29 756.16
  A 0.82 0.81 90.0 0 1 852.10 756.98
  L 852.10 769.21
  A 0.83 0.83 0.0 0 1 851.27 770.04
  L 816.81 770.04
  A 0.48 0.48 0.0 0 0 816.33 770.52
  L 816.33 789.32
  A 0.59 0.59 0.0 0 0 816.92 789.91
  L 847.13 789.91
  A 0.54 0.54 0.0 0 1 847.67 790.45
  L 847.67 803.13
  A 0.53 0.52 0.0 0 1 847.14 803.65
  L 816.97 803.65
  A 0.56 0.55 -88.9 0 0 816.42 804.19
  L 816.31 808.52
  Z"
/>
<path d="
  M 775.74 802.85
  Q 775.85 800.43 777.02 798.43
  A 0.35 0.34 -74.5 0 0 776.73 797.91
  L 763.11 797.45
  A 1.26 1.22 -55.8 0 0 762.48 797.58
  Q 757.38 799.98 752.56 800.09
  C 741.43 800.36 731.74 800.11 721.02 802.71
  L 720.95 756.71
  A 0.51 0.50 -90.0 0 1 721.45 756.20
  Q 736.97 756.06 753.26 756.23
  Q 763.65 756.34 770.19 760.54
  C 785.16 770.14 787.14 789.30 775.74 802.85
  Z"
/>
</g>
<g fill="#00a2e5">
<path d="
  M 576.08 585.67
  C 572.04 585.46 568.41 586.19 570.30 591.35
  L 540.48 562.62
  A 2.83 2.81 -68.3 0 1 539.61 560.58
  L 539.61 498.47
  A 2.22 2.19 22.8 0 0 538.96 496.91
  L 533.69 491.64
  A 2.61 2.52 -16.8 0 0 532.31 490.93
  C 527.80 490.14 523.80 488.71 522.27 484.27
  C 519.37 475.80 528.36 469.75 535.32 475.16
  Q 539.52 478.41 539.17 484.60
  Q 539.08 486.19 541.34 488.12
  Q 543.84 490.24 546.74 492.95
  A 2.10 2.06 11.4 0 1 547.25 493.70
  Q 547.72 494.92 547.70 496.66
  Q 547.44 517.85 547.53 555.51
  Q 547.54 558.16 549.09 559.65
  Q 562.59 572.56 576.08 585.67
  Z"
/>
<path d="
  M 516.30 835.24
  C 510.00 838.77 501.05 839.37 493.77 838.78
  Q 482.20 837.83 471.93 833.18
  A 1.36 1.35 21.1 0 1 471.19 831.53
  L 473.74 823.58
  Q 479.36 823.05 485.72 825.18
  Q 496.76 828.89 507.66 825.05
  Q 509.63 824.36 513.85 822.18
  C 517.74 820.18 521.08 819.11 525.83 818.99
  A 0.41 0.41 0.0 0 1 526.25 819.45
  C 525.25 828.21 519.83 832.05 512.14 835.87
  Q 514.12 835.62 516.30 835.24
  Z"
/>
</g>
<path fill="#00dafe" d="
  M 192.85 818.48
  C 186.62 815.29 181.78 816.46 175.28 816.46
  A 0.43 0.43 0.0 0 0 174.91 817.12
  L 182.57 829.39
  Q 171.44 819.47 169.86 804.48
  C 168.64 792.92 169.80 781.66 176.28 771.68
  Q 190.19 752.71 214.32 755.42
  Q 224.57 756.57 233.52 762.06
  A 0.58 0.57 29.5 0 1 233.73 762.81
  L 228.46 773.33
  A 0.99 0.99 0.0 0 1 227.14 773.77
  C 217.77 769.20 204.51 768.00 195.64 773.39
  C 185.06 779.82 182.95 794.17 185.44 805.56
  Q 187.05 812.94 192.85 818.48
  Z"
/>
<g fill="#002c4d">
<path d="
  M 545.31 340.18
  Q 556.53 342.73 568.53 341.82
  A 0.50 0.50 0.0 0 1 568.86 342.72
  Q 565.42 345.19 558.25 350.64
  C 554.22 353.71 551.32 357.98 547.46 362.50
  A 0.25 0.25 0.0 0 1 547.03 362.39
  Q 546.12 357.80 542.52 354.67
  C 538.59 351.70 533.42 351.22 529.18 353.80
  C 522.49 357.87 521.40 365.50 525.33 372.13
  A 0.92 0.90 43.4 0 1 525.36 372.98
  Q 521.05 381.63 514.55 387.49
  A 0.56 0.56 0.0 0 1 513.78 387.46
  Q 507.85 381.19 498.89 383.76
  Q 494.63 384.99 492.24 389.09
  Q 488.19 396.05 492.79 402.99
  Q 493.70 404.36 497.38 407.40
  A 1.14 1.12 -71.7 0 1 497.79 408.23
  Q 498.35 422.28 497.98 433.14
  C 497.88 435.81 498.25 438.63 498.10 441.42
  Q 497.89 445.35 497.90 447.65
  Q 497.98 464.12 497.86 493.25
  C 497.83 499.35 499.13 502.40 503.63 506.44
  C 508.53 510.86 513.63 515.09 514.48 521.08
  Q 515.50 528.33 515.95 530.42
  L 450.31 530.70
  A 0.41 0.41 0.0 0 1 449.97 530.06
  Q 460.54 514.50 466.24 496.74
  Q 473.01 475.66 476.27 453.75
  Q 480.88 422.83 481.11 393.26
  Q 481.18 384.50 480.30 376.81
  Q 478.54 361.26 466.64 352.05
  Q 473.62 348.71 473.48 340.14
  L 545.31 340.18
  Z"
/>
<ellipse cx="0.00" cy="0.00" transform="translate(513.98,626.72) rotate(-95.1)" rx="0.16" ry="0.07"/>
<ellipse cx="0.00" cy="0.00" transform="translate(530.00,626.62) rotate(-90.0)" rx="0.08" ry="0.04"/>
</g>
<g fill="#007bc6">
<path d="
  M 340.69 269.80
  Q 323.20 288.26 309.45 309.83
  Q 301.73 319.05 296.30 330.58
  A 0.38 0.38 0.0 0 1 295.67 330.67
  L 295.23 330.16
  A 0.45 0.44 -41.8 0 1 295.27 329.53
  L 295.91 328.97
  A 0.30 0.29 -49.1 0 0 295.88 328.50
  C 293.33 326.85 294.99 322.81 295.93 321.40
  Q 299.55 315.97 300.82 309.74
  Q 314.66 286.21 333.44 266.42
  L 340.69 269.80
  Z"
/>
<path d="
  M 541.79 591.53
  L 547.64 597.27
  Q 541.80 596.64 539.01 600.54
  L 533.78 595.33
  C 534.11 590.59 538.01 590.10 541.79 591.53
  Z"
/>
</g>
<g fill="#005fa6">
<path d="
  M 757.62 405.93
  Q 760.35 428.96 759.29 452.02
  Q 754.73 453.52 751.57 457.34
  Q 752.94 434.89 750.97 412.79
  Q 753.18 407.66 757.62 405.93
  Z"
/>
<path d="
  M 298.84 543.91
  Q 307.65 561.03 319.31 576.49
  Q 315.49 577.78 313.81 581.22
  Q 300.99 564.57 291.44 545.91
  L 289.65 537.58
  A 0.64 0.64 0.0 0 1 290.30 536.81
  Q 291.52 536.85 292.12 535.53
  A 0.44 0.43 -44.7 0 1 292.92 535.53
  Q 294.97 540.31 298.84 543.91
  Z"
/>
</g>
<path fill="#002855" d="
  M 759.29 452.02
  C 757.07 493.15 743.75 533.52 720.19 567.35
  A 1.33 1.24 2.0 0 1 719.72 567.76
  L 706.89 574.55
  A 0.01 0.01 0.0 0 1 706.87 574.53
  Q 715.70 562.74 724.71 546.94
  C 739.96 520.24 748.68 488.37 751.57 457.34
  Q 754.73 453.52 759.29 452.02
  Z"
/>
<path fill="#00b4f2" d="
  M 656.69 809.75
  L 649.52 837.14
  A 1.04 1.04 0.0 0 1 648.51 837.92
  L 633.90 837.92
  A 1.05 1.04 -7.6 0 1 632.89 837.16
  L 621.78 798.08
  Q 621.83 795.70 622.44 793.50
  C 624.51 786.08 631.76 791.49 634.54 794.56
  L 640.43 820.12
  A 0.17 0.17 0.0 0 0 640.77 820.11
  L 642.09 812.46
  Q 644.09 809.74 644.55 807.77
  Q 647.09 797.05 649.35 788.51
  A 0.53 0.53 0.0 0 1 649.93 788.12
  Q 655.71 788.91 659.41 793.00
  A 0.87 0.85 32.9 0 1 659.60 793.84
  C 658.74 796.67 655.91 804.95 656.69 809.75
  Z"
/>
<path fill="#001737" d="
  M 544.98 650.77
  L 555.96 636.42
  A 0.27 0.27 0.0 0 0 555.76 635.99
  L 547.70 635.65
  Q 558.23 635.30 568.75 635.41
  Q 604.56 635.78 630.92 635.56
  Q 636.49 635.51 640.70 638.57
  A 1.11 1.10 -72.3 0 1 641.16 639.47
  L 641.16 649.62
  A 0.76 0.75 -90.0 0 1 640.41 650.38
  L 544.98 650.77
  Z"
/>
<path fill="#01a9e5" d="
  M 467.21 635.51
  L 492.51 635.81
  Q 490.76 644.96 481.82 647.31
  A 0.21 0.20 82.8 0 0 481.67 647.51
  L 481.66 648.39
  A 0.22 0.22 0.0 0 0 481.94 648.60
  L 484.97 647.77
  A 0.22 0.21 -13.7 0 1 485.23 647.92
  L 485.30 648.18
  A 0.09 0.09 0.0 0 0 485.46 648.21
  Q 485.56 648.09 485.59 647.99
  A 0.07 0.07 0.0 0 1 485.72 648.01
  Q 485.65 649.62 485.40 649.98
  L 439.21 650.68
  L 384.95 650.73
  Q 384.23 650.83 383.74 650.62
  Q 383.29 650.44 383.23 649.68
  C 382.74 643.76 382.04 635.65 389.25 635.69
  Q 428.23 635.88 467.21 635.51
  Z"
/>
<path fill="#001530" d="
  M 572.20 340.02
  Q 573.09 339.94 573.56 340.09
  A 0.53 0.53 0.0 0 1 573.73 341.02
  Q 566.90 346.27 559.90 351.14
  Q 558.39 352.19 556.15 354.81
  Q 555.91 354.24 555.48 354.28
  Q 554.60 354.36 554.26 355.19
  Q 553.32 357.51 552.23 360.46
  A 1.40 1.39 43.5 0 0 552.26 361.49
  Q 554.37 366.31 559.62 367.21
  A 0.48 0.47 16.1 0 1 559.98 367.86
  Q 556.97 375.03 556.43 381.86
  C 555.77 390.34 554.76 398.07 555.71 405.97
  C 556.17 409.85 556.16 415.88 556.79 421.66
  Q 558.65 438.96 563.40 456.10
  Q 563.96 458.14 566.43 467.40
  Q 567.84 472.73 570.04 478.48
  Q 579.41 503.07 588.40 524.50
  Q 589.41 526.92 587.37 528.93
  A 1.00 0.99 -65.5 0 1 586.60 529.22
  Q 584.70 529.11 584.81 530.42
  L 570.74 530.33
  L 567.55 530.32
  A 0.58 0.57 -1.6 0 1 566.98 529.79
  Q 566.75 526.68 566.76 524.25
  Q 566.85 499.44 566.75 485.71
  C 566.74 483.89 566.92 481.36 565.68 480.07
  Q 560.62 474.83 542.29 456.46
  Q 539.83 453.99 539.84 451.25
  Q 540.03 420.08 539.78 388.98
  L 539.67 374.47
  A 1.42 1.41 66.8 0 1 540.07 373.46
  C 541.21 372.31 542.74 371.52 543.61 370.14
  Q 548.49 362.36 541.52 355.38
  L 542.52 354.67
  Q 546.12 357.80 547.03 362.39
  A 0.25 0.25 0.0 0 0 547.46 362.50
  C 551.32 357.98 554.22 353.71 558.25 350.64
  Q 565.42 345.19 568.86 342.72
  A 0.50 0.50 0.0 0 0 568.53 341.82
  Q 556.53 342.73 545.31 340.18
  L 572.20 340.02
  Z"
/>
<g fill="#0086d1">
<path d="
  M 693.50 268.62
  Q 711.00 287.41 724.11 309.39
  Q 750.87 354.24 757.62 405.93
  Q 753.18 407.66 750.97 412.79
  C 745.19 358.22 720.90 307.68 682.60 268.48
  Q 689.90 273.19 695.32 280.47
  A 0.60 0.59 58.2 0 0 696.06 280.65
  C 699.04 279.13 698.05 276.92 696.52 274.45
  Q 694.80 271.65 693.50 268.62
  Z"
/>
<path d="
  M 521.99 613.60
  L 522.16 613.93
  A 0.31 0.31 0.0 0 1 521.96 614.38
  L 520.84 614.66
  L 505.89 615.41
  L 496.57 614.91
  Q 495.06 612.32 487.66 613.15
  L 521.99 613.60
  Z"
/>
</g>
<path fill="#006096" d="
  M 473.48 340.14
  Q 473.62 348.71 466.64 352.05
  L 449.60 340.79
  A 0.37 0.36 61.7 0 1 449.80 340.12
  L 473.48 340.14
  Z"
/>
<path fill="#006dbb" d="
  M 584.81 530.42
  L 592.76 530.72
  A 3.83 3.79 -30.8 0 1 594.26 531.09
  C 599.28 533.48 601.15 539.73 597.01 544.05
  Q 594.84 546.30 591.38 547.35
  Q 587.47 552.50 582.87 556.02
  L 580.79 544.98
  A 1.13 1.12 85.0 0 0 579.70 544.06
  L 573.28 543.94
  C 569.22 540.26 569.59 535.23 570.74 530.33
  L 584.81 530.42
  Z"
/>
<g fill="#00cdfb">
<path d="
  M 588.45 723.77
  L 588.45 732.31
  A 0.62 0.62 0.0 0 1 587.83 732.93
  L 553.39 732.93
  A 0.62 0.62 0.0 0 1 552.77 732.31
  L 552.77 685.57
  A 0.62 0.62 0.0 0 1 553.39 684.95
  L 586.29 684.95
  A 0.62 0.62 0.0 0 1 586.91 685.57
  L 586.91 694.06
  A 0.62 0.62 0.0 0 1 586.29 694.68
  L 564.23 694.68
  A 0.62 0.62 0.0 0 0 563.61 695.30
  L 563.61 702.78
  A 0.62 0.62 0.0 0 0 564.23 703.40
  L 584.25 703.40
  A 0.62 0.62 0.0 0 1 584.87 704.02
  L 584.87 712.31
  A 0.62 0.62 0.0 0 1 584.25 712.93
  L 564.23 712.93
  A 0.62 0.62 0.0 0 0 563.61 713.55
  L 563.61 722.53
  A 0.62 0.62 0.0 0 0 564.23 723.15
  L 587.83 723.15
  A 0.62 0.62 0.0 0 1 588.45 723.77
  Z"
/>
<path d="
  M 506.45 791.09
  Q 514.51 794.27 519.42 797.80
  C 525.50 802.19 528.36 809.00 528.21 816.52
  Q 527.98 828.98 516.30 835.24
  Q 514.12 835.62 512.14 835.87
  C 519.83 832.05 525.25 828.21 526.25 819.45
  A 0.41 0.41 0.0 0 0 525.83 818.99
  C 521.08 819.11 517.74 820.18 513.85 822.18
  Q 509.63 824.36 507.66 825.05
  Q 496.76 828.89 485.72 825.18
  Q 479.36 823.05 473.74 823.58
  L 474.38 821.48
  Q 474.48 820.49 474.96 819.70
  A 0.60 0.59 29.7 0 1 475.75 819.49
  C 484.52 824.30 494.97 826.57 504.67 824.73
  C 511.98 823.34 516.13 814.95 510.08 809.35
  Q 507.54 806.99 503.35 805.43
  C 489.88 800.43 475.21 797.12 471.66 784.56
  Q 470.64 780.98 470.91 775.90
  C 471.54 764.08 481.83 756.93 492.75 755.58
  Q 508.53 753.62 523.08 760.24
  A 0.70 0.70 0.0 0 1 523.46 761.09
  L 519.73 772.68
  A 0.62 0.62 0.0 0 1 518.92 773.07
  C 512.12 770.48 505.56 768.60 498.27 768.98
  C 493.71 769.22 487.81 770.81 486.50 775.49
  C 485.03 780.77 488.70 784.07 493.32 786.14
  Q 500.15 789.20 506.45 791.09
  Z"
/>
<path d="
  M 585.00 782.56
  L 592.94 817.00
  L 589.93 812.49
  A 3.26 3.25 71.1 0 0 587.00 811.05
  Q 582.95 811.33 580.60 811.30
  Q 580.20 811.30 580.13 811.21
  Q 579.78 810.78 579.58 810.94
  A 0.48 0.47 64.4 0 0 579.41 811.44
  C 580.91 817.34 583.43 823.96 583.00 830.27
  L 562.78 756.74
  A 0.50 0.49 -7.9 0 1 563.26 756.11
  L 577.81 756.11
  A 0.70 0.70 0.0 0 1 578.49 756.64
  L 585.00 782.56
  Z"
/>
</g>
<g fill="#003466">
<path d="
  M 340.69 269.80
  L 333.44 266.42
  Q 353.43 245.06 378.25 229.79
  C 382.75 227.02 386.87 225.13 391.18 222.91
  A 0.51 0.50 62.9 0 1 391.85 223.13
  L 394.59 228.29
  A 0.42 0.42 0.0 0 1 394.43 228.84
  C 389.11 232.02 383.61 234.85 378.46 238.38
  Q 358.20 252.31 340.69 269.80
  Z"
/>
<path d="
  M 547.70 635.65
  L 555.76 635.99
  A 0.27 0.27 0.0 0 1 555.96 636.42
  L 544.98 650.77
  L 493.04 650.63
  L 485.40 649.98
  Q 485.65 649.62 485.72 648.01
  A 0.07 0.07 0.0 0 0 485.59 647.99
  Q 485.56 648.09 485.46 648.21
  A 0.09 0.09 0.0 0 1 485.30 648.18
  L 485.23 647.92
  A 0.22 0.21 -13.7 0 0 484.97 647.77
  L 481.94 648.60
  A 0.22 0.22 0.0 0 1 481.66 648.39
  L 481.67 647.51
  A 0.21 0.20 82.8 0 1 481.82 647.31
  Q 490.76 644.96 492.51 635.81
  L 503.48 635.61
  L 547.70 635.65
  Z"
/>
</g>
<rect fill="#00bdf5" x="-7.41" y="-40.87" transform="translate(692.44,796.99) rotate(0.1)" width="14.82" height="81.74" rx="1.05"/>
<path fill="#00a5e1" d="
  M 539.78 388.98
  Q 540.03 420.08 539.84 451.25
  Q 539.83 453.99 542.29 456.46
  Q 560.62 474.83 565.68 480.07
  C 566.92 481.36 566.74 483.89 566.75 485.71
  Q 566.85 499.44 566.76 524.25
  Q 566.75 526.68 566.98 529.79
  A 0.58 0.57 -1.6 0 0 567.55 530.32
  L 570.74 530.33
  C 569.59 535.23 569.22 540.26 573.28 543.94
  L 559.81 543.97
  A 0.91 0.90 0.3 0 1 558.90 543.06
  C 558.90 539.77 558.67 535.74 558.72 533.31
  Q 559.22 512.05 558.94 486.77
  Q 558.92 484.63 558.04 483.75
  Q 556.26 481.97 532.03 458.00
  Q 530.93 456.91 530.92 453.86
  Q 530.87 430.58 530.80 407.29
  L 530.96 409.34
  A 0.16 0.15 80.3 0 0 531.15 409.48
  L 531.75 409.31
  A 0.08 0.06 -14.2 0 0 531.80 409.25
  L 532.26 393.15
  A 0.70 0.69 72.2 0 1 532.53 392.62
  Q 535.16 390.59 536.56 387.28
  A 0.71 0.71 0.0 0 1 537.89 387.35
  Q 538.40 388.99 539.78 388.98
  Z"
/>
<circle fill="#002848" cx="527.11" cy="627.32" r="0.06"/>
<g stroke-width="2.00" fill="none" stroke-linecap="butt">
<path stroke="#00bef5" d="
  M 458.61 809.20
  L 454.57 804.11
  A 1.03 1.00 71.7 0 0 453.86 803.74
  C 443.92 803.07 442.85 807.30 444.90 816.03
  A 0.68 0.68 0.0 0 1 444.87 816.44
  L 442.69 822.34
  A 0.98 0.97 84.8 0 1 442.26 822.86
  C 430.28 830.01 419.41 826.05 407.33 822.22
  A 1.08 1.07 -72.2 0 0 405.98 822.92
  L 403.27 831.33
  A 0.54 0.54 0.0 0 0 403.64 832.01
  Q 409.53 833.62 414.52 836.97"
/>
<path stroke="#00bef5" d="
  M 351.01 818.00
  C 350.07 814.76 349.20 807.50 344.21 809.02
  Q 341.32 809.90 336.50 812.52"
/>
<path stroke="#00bef2" d="
  M 519.85 177.15
  L 504.59 185.22"
/>
<path stroke="#00b8f0" d="
  M 497.04 312.14
  L 505.93 311.98
  A 0.24 0.24 0.0 0 0 506.17 311.75
  A 0.18 0.18 0.0 0 0 506.01 311.53
  L 502.98 311.30
  A 1.70 1.64 61.0 0 1 502.30 311.09
  Q 493.32 306.05 488.48 297.00"
/>
<path stroke="#0070a5" d="
  M 488.48 297.00
  L 498.79 296.89"
/>
<path stroke="#006597" d="
  M 498.79 296.89
  L 549.19 296.99
  A 1.73 1.72 -78.8 0 0 550.78 295.92
  Q 563.79 264.26 583.66 229.40
  Q 586.23 224.87 582.54 221.55
  C 577.48 216.99 568.36 219.88 563.39 223.13
  C 555.96 227.99 549.81 234.29 543.81 241.08
  A 0.49 0.48 39.3 0 1 543.14 241.14
  L 534.26 233.94"
/>
<path stroke="#0070a5" d="
  M 534.26 233.94
  L 529.27 230.46"
/>
<path stroke="#007eb8" d="
  M 529.27 230.46
  L 525.67 227.79
  A 1.36 1.34 -60.8 0 1 525.23 226.19
  L 528.04 219.30
  A 1.46 1.45 -74.2 0 0 526.93 217.31
  C 524.23 216.87 519.71 216.42 516.02 216.60
  Q 507.52 217.01 498.75 217.07
  A 0.48 0.48 0.0 0 0 498.32 217.74
  L 499.67 220.80
  A 2.07 2.06 57.4 0 1 499.15 223.19
  L 479.41 240.49
  A 1.13 1.13 0.0 0 1 477.78 240.35
  Q 469.95 230.56 459.74 223.02"
/>
<path stroke="#00b8f0" d="
  M 459.74 223.02
  Q 457.07 218.96 448.38 217.88
  A 0.80 0.79 4.0 0 1 447.68 217.08
  L 447.75 209.69
  A 0.67 0.66 -84.2 0 1 448.54 209.04
  Q 456.12 210.47 465.07 213.83"
/>
<path stroke="#004c78" d="
  M 529.27 230.46
  C 516.19 238.32 504.50 246.66 499.63 261.85
  Q 498.76 264.55 494.11 279.51
  Q 491.82 286.88 484.13 295.74
  A 1.25 1.23 19.5 0 1 483.21 296.17
  L 474.42 296.30
  A 0.95 0.95 0.0 0 1 473.62 295.86
  Q 472.76 294.50 471.95 294.28"
/>
<path stroke="#003357" d="
  M 498.79 296.89
  Q 498.02 296.89 497.47 296.75
  A 0.28 0.27 -38.0 0 1 497.54 296.21
  L 519.31 295.89
  A 0.62 0.61 -86.0 0 0 519.90 295.37
  Q 522.22 280.67 524.53 272.38
  Q 529.25 255.46 540.02 241.01
  A 0.61 0.60 42.6 0 0 539.98 240.25
  L 534.26 233.94"
/>
<path stroke="#0093c3" d="
  M 459.74 223.02
  C 454.72 219.90 448.72 218.03 443.30 220.80
  C 438.08 223.46 439.60 226.94 442.14 231.41
  Q 459.36 261.74 471.95 294.28"
/>
<path stroke="#0086b0" d="
  M 471.95 294.28
  L 472.72 296.30
  A 0.80 0.79 -9.8 0 0 473.45 296.81
  L 488.48 297.00"
/>
<path stroke="#00132c" d="
  M 529.97 619.98
  L 530.09 620.79"
/>
<path stroke="#003664" d="
  M 530.09 620.79
  L 530.29 621.29"
/>
<path stroke="#00132c" d="
  M 530.29 621.29
  Q 530.25 621.34 530.21 621.39"
/>
<path stroke="#003d6f" d="
  M 530.29 621.29
  Q 530.30 621.01 530.09 620.79"
/>
</g>
<path fill="#00598b" d="
  M 529.27 230.46
  C 516.19 238.32 504.50 246.66 499.63 261.85
  Q 498.76 264.55 494.11 279.51
  Q 491.82 286.88 484.13 295.74
  A 1.25 1.23 19.5 0 1 483.21 296.17
  L 474.42 296.30
  A 0.95 0.95 0.0 0 1 473.62 295.86
  Q 472.76 294.50 471.95 294.28
  Q 459.36 261.74 442.14 231.41
  C 439.60 226.94 438.08 223.46 443.30 220.80
  C 448.72 218.03 454.72 219.90 459.74 223.02
  Q 469.95 230.56 477.78 240.35
  A 1.13 1.13 0.0 0 0 479.41 240.49
  L 499.15 223.19
  A 2.07 2.06 57.4 0 0 499.67 220.80
  L 498.32 217.74
  A 0.48 0.48 0.0 0 1 498.75 217.07
  Q 507.52 217.01 516.02 216.60
  C 519.71 216.42 524.23 216.87 526.93 217.31
  A 1.46 1.45 -74.2 0 1 528.04 219.30
  L 525.23 226.19
  A 1.36 1.34 -60.8 0 0 525.67 227.79
  L 529.27 230.46
  Z"
/>
<path fill="#002646" d="
  M 526.00 621.75
  Q 526.04 621.77 526.08 621.78
  Q 526.09 621.79 526.08 621.78
  Q 526.04 621.77 526.00 621.75
  Z"
/>
<path fill="#000c21" d="
  M 529.97 619.98
  L 530.09 620.79
  L 530.29 621.29
  Q 530.25 621.34 530.21 621.39
  L 528.71 622.26
  A 0.38 0.37 -84.6 0 1 528.24 621.69
  Q 529.22 620.54 527.94 619.82
  Q 527.07 619.33 526.65 619.89
  A 0.28 0.28 0.0 0 1 526.15 619.76
  Q 526.12 619.59 526.87 618.77
  A 0.27 0.27 0.0 0 0 526.62 618.32
  L 525.74 618.50
  Q 523.73 618.91 521.82 618.40
  A 0.62 0.59 80.7 0 0 521.19 619.33
  Q 521.41 619.69 521.33 619.99
  Q 521.24 620.34 520.74 620.03
  Q 518.35 618.61 517.64 618.69
  A 0.28 0.28 0.0 0 1 517.40 618.23
  Q 517.41 618.22 518.52 618.40
  A 0.55 0.54 87.2 0 0 519.13 617.72
  L 518.89 616.87
  A 0.32 0.32 0.0 0 1 519.43 616.56
  L 520.87 618.01
  A 0.35 0.34 -52.0 0 0 521.41 617.94
  Q 523.03 615.21 526.06 616.36
  A 1.77 1.74 -5.8 0 1 526.86 617.00
  Q 528.06 618.79 529.97 619.98
  Z"
/>
<path fill="#003063" d="
  M 520.29 621.98
  Q 520.19 621.98 520.12 621.93
  Q 520.22 621.89 520.29 621.98
  Z"
/>
<g fill="#001a37">
<circle cx="386.57" cy="390.50" r="7.58"/>
<circle cx="359.33" cy="446.06" r="7.54"/>
<path d="
  M 515.22 617.62
  Q 515.15 618.19 514.85 618.56
  A 0.43 0.35 -30.4 0 1 514.13 618.45
  Q 514.12 617.92 514.76 617.37
  A 0.28 0.28 0.0 0 1 515.22 617.62
  Z"
/>
<path d="
  M 530.21 621.39
  Q 530.25 621.34 530.29 621.29
  Q 530.30 621.01 530.09 620.79
  L 529.97 619.98
  L 532.17 621.28
  A 0.04 0.04 0.0 0 1 532.18 621.35
  L 531.95 621.58
  A 0.21 0.21 0.0 0 1 531.68 621.61
  Q 531.02 621.19 530.21 621.39
  Z"
/>
<path d="
  M 526.00 621.75
  Q 525.95 621.72 525.90 621.69
  Q 525.89 621.68 525.90 621.69
  Q 525.95 621.72 526.00 621.75
  Z"
/>
</g>
<path fill="#00d1fc" d="
  M 510.74 703.81
  Q 517.42 703.82 520.20 703.66
  A 0.32 0.32 0.0 0 0 520.49 703.34
  L 520.49 685.62
  A 0.71 0.71 0.0 0 1 521.20 684.91
  L 530.60 684.95
  A 0.86 0.85 -89.8 0 1 531.46 685.81
  Q 531.46 685.99 531.46 708.94
  Q 531.46 731.90 531.45 732.07
  A 0.86 0.85 89.8 0 1 530.60 732.94
  L 521.20 732.97
  A 0.71 0.71 0.0 0 1 520.49 732.26
  L 520.49 714.54
  A 0.32 0.32 0.0 0 0 520.20 714.22
  Q 517.42 714.07 510.74 714.07
  Q 504.07 714.07 501.29 714.22
  A 0.32 0.32 0.0 0 0 500.99 714.54
  L 500.99 732.26
  A 0.71 0.71 0.0 0 1 500.28 732.97
  L 490.88 732.93
  A 0.86 0.85 -89.8 0 1 490.03 732.07
  Q 490.02 731.89 490.02 708.94
  Q 490.03 685.98 490.03 685.81
  A 0.86 0.85 89.8 0 1 490.89 684.95
  L 500.29 684.91
  A 0.71 0.71 0.0 0 1 501.00 685.62
  L 500.99 703.34
  A 0.32 0.32 0.0 0 0 501.29 703.66
  Q 504.07 703.81 510.74 703.81
  Z"
/>
<path fill="#00a2e5" d="
  M 519.85 177.15
  L 519.72 201.26
  A 0.67 0.67 0.0 0 0 520.42 201.94
  C 525.43 201.72 529.66 202.01 533.89 204.85
  Q 540.39 209.22 543.29 215.70
  C 544.82 219.13 541.96 223.84 539.70 226.90
  A 0.94 0.93 27.0 0 0 540.17 228.34
  L 540.71 228.51
  A 1.75 1.75 0.0 0 0 542.52 228.05
  C 552.05 218.06 562.23 207.70 577.26 207.85
  Q 583.79 207.92 588.01 211.05
  Q 593.06 214.77 595.14 219.86
  C 597.52 225.69 596.08 230.62 592.70 236.36
  Q 575.65 265.33 563.07 295.34
  A 1.39 1.38 24.7 0 0 563.73 297.11
  Q 569.70 300.08 568.32 306.57
  C 567.32 311.28 563.92 311.86 559.39 311.91
  Q 528.22 312.26 497.04 312.14
  L 505.93 311.98
  A 0.24 0.24 0.0 0 0 506.17 311.75
  A 0.18 0.18 0.0 0 0 506.01 311.53
  L 502.98 311.30
  A 1.70 1.64 61.0 0 1 502.30 311.09
  Q 493.32 306.05 488.48 297.00
  L 498.79 296.89
  L 549.19 296.99
  A 1.73 1.72 -78.8 0 0 550.78 295.92
  Q 563.79 264.26 583.66 229.40
  Q 586.23 224.87 582.54 221.55
  C 577.48 216.99 568.36 219.88 563.39 223.13
  C 555.96 227.99 549.81 234.29 543.81 241.08
  A 0.49 0.48 39.3 0 1 543.14 241.14
  L 534.26 233.94
  L 529.27 230.46
  L 525.67 227.79
  A 1.36 1.34 -60.8 0 1 525.23 226.19
  L 528.04 219.30
  A 1.46 1.45 -74.2 0 0 526.93 217.31
  C 524.23 216.87 519.71 216.42 516.02 216.60
  Q 507.52 217.01 498.75 217.07
  A 0.48 0.48 0.0 0 0 498.32 217.74
  L 499.67 220.80
  A 2.07 2.06 57.4 0 1 499.15 223.19
  L 479.41 240.49
  A 1.13 1.13 0.0 0 1 477.78 240.35
  Q 469.95 230.56 459.74 223.02
  Q 457.07 218.96 448.38 217.88
  A 0.80 0.79 4.0 0 1 447.68 217.08
  L 447.75 209.69
  A 0.67 0.66 -84.2 0 1 448.54 209.04
  Q 456.12 210.47 465.07 213.83
  Q 467.25 214.82 469.55 216.95
  Q 475.10 222.09 479.51 227.50
  A 1.05 1.04 49.7 0 0 481.01 227.63
  L 484.03 224.98
  A 1.03 1.03 0.0 0 0 484.10 223.50
  Q 478.48 217.56 483.88 210.89
  C 487.63 206.25 492.34 202.01 498.61 201.99
  Q 500.74 201.99 504.24 201.93
  A 0.41 0.41 0.0 0 0 504.65 201.52
  L 504.59 185.22
  L 519.85 177.15
  Z"
/>
<path fill="#00dafe" d="
  M 519.85 177.15
  L 504.59 185.22
  L 504.61 177.90
  A 1.01 1.01 0.0 0 0 503.60 176.88
  L 480.30 176.88
  A 0.79 0.79 0.0 0 1 479.51 176.09
  L 479.51 162.30
  A 0.52 0.52 0.0 0 1 480.03 161.78
  L 504.03 161.78
  A 0.59 0.59 0.0 0 0 504.62 161.19
  L 504.62 134.59
  A 0.51 0.50 -0.0 0 1 505.13 134.09
  L 518.60 134.09
  A 1.20 1.19 -0.0 0 1 519.80 135.28
  L 519.80 161.08
  A 0.81 0.80 -90.0 0 0 520.60 161.89
  L 543.61 161.89
  A 0.54 0.53 0.0 0 1 544.15 162.42
  L 544.15 175.95
  A 0.83 0.83 0.0 0 1 543.33 176.78
  L 519.85 177.15
  Z"
/>
<circle fill="#004b8a" cx="546.64" cy="619.02" r="0.07"/>
<path fill="#005fa6" d="
  M 530.29 621.29
  L 530.09 620.79
  Q 530.30 621.01 530.29 621.29
  Z"
/>
<path fill="#002855" d="
  M 516.85 621.49
  Q 517.97 621.15 518.79 621.58
  A 0.30 0.30 0.0 0 1 518.65 622.14
  L 516.94 622.13
  A 0.33 0.33 0.0 0 1 516.85 621.49
  Z"
/>
<path fill="#001530" d="
  M 525.74 618.50
  Q 525.79 618.52 525.84 618.53
  Q 525.86 618.53 525.84 618.53
  Q 525.79 618.51 525.74 618.50
  Z"
/>
<path fill="#00cdfb" d="
  M 465.07 213.83
  Q 456.12 210.47 448.54 209.04
  A 0.67 0.66 -84.2 0 0 447.75 209.69
  L 447.68 217.08
  A 0.80 0.79 4.0 0 0 448.38 217.88
  Q 457.07 218.96 459.74 223.02
  C 454.72 219.90 448.72 218.03 443.30 220.80
  C 438.08 223.46 439.60 226.94 442.14 231.41
  Q 459.36 261.74 471.95 294.28
  L 472.72 296.30
  A 0.80 0.79 -9.8 0 0 473.45 296.81
  L 488.48 297.00
  Q 493.32 306.05 502.30 311.09
  A 1.70 1.64 61.0 0 0 502.98 311.30
  L 506.01 311.53
  A 0.18 0.18 0.0 0 1 506.17 311.75
  A 0.24 0.24 0.0 0 1 505.93 311.98
  L 497.04 312.14
  Q 482.57 312.25 468.11 312.23
  Q 461.15 312.23 460.43 312.05
  C 453.27 310.29 453.39 299.81 460.20 297.38
  A 0.93 0.93 0.0 0 0 460.75 296.15
  Q 448.21 265.60 432.70 238.23
  Q 428.18 230.26 427.89 227.75
  C 427.00 220.18 431.96 213.35 438.50 209.85
  Q 442.66 207.64 448.44 207.80
  Q 457.45 208.05 465.07 213.83
  Z"
/>
<g fill="#003466">
<ellipse cx="0.00" cy="0.00" transform="translate(510.15,621.67) rotate(-177.7)" rx="2.57" ry="0.45"/>
<circle cx="538.37" cy="621.65" r="0.03"/>
</g>
<ellipse fill="#00bdf5" cx="0.00" cy="0.00" transform="translate(491.34,576.04) rotate(-131.7)" rx="9.05" ry="8.23"/>
<g fill="#00a8ec">
<path d="
  M 458.61 809.20
  Q 459.63 814.42 458.88 819.59
  C 457.29 830.62 447.37 836.82 436.77 838.30
  Q 425.18 839.92 414.52 836.97
  Q 409.53 833.62 403.64 832.01
  A 0.54 0.54 0.0 0 1 403.27 831.33
  L 405.98 822.92
  A 1.08 1.07 -72.2 0 1 407.33 822.22
  C 419.41 826.05 430.28 830.01 442.26 822.86
  A 0.98 0.97 84.8 0 0 442.69 822.34
  L 444.87 816.44
  A 0.68 0.68 0.0 0 0 444.90 816.03
  C 442.85 807.30 443.92 803.07 453.86 803.74
  A 1.03 1.00 71.7 0 1 454.57 804.11
  L 458.61 809.20
  Z"
/>
<path d="
  M 351.01 818.00
  L 351.25 823.16
  A 0.86 0.86 0.0 0 0 352.11 823.99
  L 388.22 823.99
  A 0.79 0.78 -90.0 0 1 389.00 824.78
  L 389.00 837.26
  A 0.58 0.57 -90.0 0 1 388.43 837.84
  L 336.93 837.84
  A 0.51 0.50 90.0 0 1 336.43 837.33
  L 336.50 812.52
  Q 341.32 809.90 344.21 809.02
  C 349.20 807.50 350.07 814.76 351.01 818.00
  Z"
/>
</g>
<g fill="#00d4fd">
<path d="
  M 452.21 684.94
  Q 461.36 684.87 470.40 684.96
  A 0.89 0.89 0.0 0 1 471.28 685.85
  L 471.28 694.10
  A 0.92 0.91 -90.0 0 1 470.37 695.02
  L 458.39 695.02
  A 0.79 0.79 0.0 0 0 457.60 695.81
  L 457.60 732.11
  A 0.77 0.76 88.5 0 1 456.89 732.88
  Q 455.92 732.94 452.34 732.95
  Q 448.75 732.96 447.79 732.90
  A 0.77 0.76 -88.8 0 1 447.07 732.14
  L 446.87 695.84
  A 0.79 0.79 0.0 0 0 446.08 695.05
  L 434.10 695.12
  A 0.92 0.91 89.7 0 1 433.18 694.21
  L 433.14 685.96
  A 0.89 0.89 0.0 0 1 434.01 685.06
  Q 443.05 684.93 452.21 684.94
  Z"
/>
<path d="
  M 458.61 809.20
  L 454.57 804.11
  A 1.03 1.00 71.7 0 0 453.86 803.74
  C 443.92 803.07 442.85 807.30 444.90 816.03
  A 0.68 0.68 0.0 0 1 444.87 816.44
  L 442.69 822.34
  A 0.98 0.97 84.8 0 1 442.26 822.86
  C 430.28 830.01 419.41 826.05 407.33 822.22
  A 1.08 1.07 -72.2 0 0 405.98 822.92
  L 403.27 831.33
  A 0.54 0.54 0.0 0 0 403.64 832.01
  Q 409.53 833.62 414.52 836.97
  Q 407.64 835.79 402.07 832.74
  A 0.86 0.86 0.0 0 1 401.66 831.72
  L 405.53 819.67
  A 0.61 0.61 0.0 0 1 406.41 819.32
  Q 420.09 826.90 434.68 824.90
  C 439.43 824.25 444.23 820.36 443.80 815.10
  C 443.39 809.99 438.95 807.21 434.39 805.33
  Q 433.64 805.03 418.54 799.47
  C 406.73 795.12 399.67 785.39 402.51 772.48
  C 404.69 762.55 414.46 756.81 423.81 755.52
  C 433.88 754.13 444.38 755.88 454.04 760.27
  A 0.66 0.65 -68.9 0 1 454.39 761.07
  L 450.73 772.49
  A 0.76 0.75 21.2 0 1 449.70 772.94
  C 441.81 769.38 427.04 766.19 419.81 772.08
  C 415.80 775.35 416.88 781.29 420.79 784.01
  Q 424.53 786.60 430.40 788.60
  Q 438.69 791.41 444.33 793.86
  Q 455.17 798.59 458.61 809.20
  Z"
/>
<path d="
  M 351.01 818.00
  C 350.07 814.76 349.20 807.50 344.21 809.02
  Q 341.32 809.90 336.50 812.52
  L 336.45 756.52
  A 0.39 0.38 -90.0 0 1 336.83 756.13
  L 387.01 756.13
  A 0.65 0.64 90.0 0 1 387.65 756.78
  L 387.65 769.38
  A 0.67 0.67 0.0 0 1 386.98 770.05
  L 352.07 770.05
  A 0.87 0.87 0.0 0 0 351.20 770.92
  L 351.20 789.01
  A 0.90 0.90 0.0 0 0 352.10 789.91
  L 382.19 789.91
  A 0.78 0.77 90.0 0 1 382.96 790.69
  L 382.96 803.02
  A 0.67 0.66 90.0 0 1 382.30 803.69
  L 352.17 803.69
  A 1.02 1.01 0.3 0 0 351.15 804.69
  L 351.01 818.00
  Z"
/>
</g>
<path fill="#003e65" d="
  M 529.27 230.46
  L 534.26 233.94
  L 539.98 240.25
  A 0.61 0.60 42.6 0 1 540.02 241.01
  Q 529.25 255.46 524.53 272.38
  Q 522.22 280.67 519.90 295.37
  A 0.62 0.61 -86.0 0 1 519.31 295.89
  L 497.54 296.21
  A 0.28 0.27 -38.0 0 0 497.47 296.75
  Q 498.02 296.89 498.79 296.89
  L 488.48 297.00
  L 473.45 296.81
  A 0.80 0.79 -9.8 0 1 472.72 296.30
  L 471.95 294.28
  Q 472.76 294.50 473.62 295.86
  A 0.95 0.95 0.0 0 0 474.42 296.30
  L 483.21 296.17
  A 1.25 1.23 19.5 0 0 484.13 295.74
  Q 491.82 286.88 494.11 279.51
  Q 498.76 264.55 499.63 261.85
  C 504.50 246.66 516.19 238.32 529.27 230.46
  Z"
/>
<path fill="#002848" d="
  M 498.79 296.89
  Q 498.02 296.89 497.47 296.75
  A 0.28 0.27 -38.0 0 1 497.54 296.21
  L 519.31 295.89
  A 0.62 0.61 -86.0 0 0 519.90 295.37
  Q 522.22 280.67 524.53 272.38
  Q 529.25 255.46 540.02 241.01
  A 0.61 0.60 42.6 0 0 539.98 240.25
  L 534.26 233.94
  L 543.14 241.14
  A 0.49 0.48 39.3 0 0 543.81 241.08
  C 549.81 234.29 555.96 227.99 563.39 223.13
  C 568.36 219.88 577.48 216.99 582.54 221.55
  Q 586.23 224.87 583.66 229.40
  Q 563.79 264.26 550.78 295.92
  A 1.73 1.72 -78.8 0 1 549.19 296.99
  L 498.79 296.89
  Z"
/>
<g fill="#001026">
<path d="
  M 540.65 616.23
  Q 540.83 619.11 538.54 619.24
  A 0.43 0.43 0.0 0 0 538.15 619.79
  Q 538.25 620.18 537.99 621.54
  A 0.21 0.21 0.0 0 1 537.61 621.61
  Q 537.37 621.21 536.94 621.26
  A 0.49 0.49 0.0 0 1 536.42 620.64
  L 536.61 619.95
  A 0.52 0.52 0.0 0 0 535.94 619.32
  Q 535.92 619.33 535.90 619.53
  A 0.02 0.02 0.0 0 1 535.87 619.54
  L 533.66 617.86
  A 0.89 0.88 -46.9 0 0 532.53 617.90
  L 531.78 618.55
  A 0.67 0.67 0.0 0 1 530.71 618.28
  Q 530.40 617.41 529.53 616.98
  A 0.40 0.39 -64.4 0 1 529.35 616.45
  Q 529.42 616.30 529.57 616.17
  A 0.24 0.23 -54.9 0 1 529.79 616.13
  Q 531.96 616.92 533.53 616.23
  A 0.90 0.90 0.0 0 1 534.52 616.42
  Q 534.83 616.71 536.17 617.04
  A 0.85 0.83 24.6 0 0 537.06 616.72
  Q 538.28 614.99 539.98 616.33
  A 0.36 0.36 0.0 0 0 540.51 616.23
  L 540.52 616.20
  A 0.07 0.07 0.0 0 1 540.65 616.23
  Z"
/>
<path d="
  M 735.78 770.77
  A 0.79 0.79 0.0 0 1 736.57 769.97
  L 753.63 769.86
  A 13.57 13.11 -0.4 0 1 767.29 782.87
  L 767.31 785.57
  A 13.57 13.11 -0.4 0 1 753.83 798.77
  L 736.77 798.89
  A 0.79 0.79 0.0 0 1 735.98 798.11
  L 735.78 770.77
  Z"
/>
</g>
<path fill="#00598b" d="
  M 537.13 619.32
  Q 537.24 619.34 537.21 619.48
  Q 537.09 619.46 537.13 619.32
  Z"
/>
<circle fill="#003466" cx="525.50" cy="618.00" r="0.03"/>
</svg>
